<?xml version="1.0" encoding="UTF-8"?>
<svg width="219px" height="259px" viewBox="0 0 219 259" version="1.1" xmlns="http://www.w3.org/2000/svg" xmlns:xlink="http://www.w3.org/1999/xlink">
    <!-- Generator: Sketch 55 (78076) - https://sketchapp.com -->
    <title>organism/metamask-logo</title>
    <desc>Created with Sketch.</desc>
    <defs>
        <filter x="-78.3%" y="-87.7%" width="256.6%" height="275.4%" filterUnits="objectBoundingBox" id="filter-1">
            <feOffset dx="0" dy="32" in="SourceAlpha" result="shadowOffsetOuter1"></feOffset>
            <feGaussianBlur stdDeviation="16.5" in="shadowOffsetOuter1" result="shadowBlurOuter1"></feGaussianBlur>
            <feColorMatrix values="0 0 0 0 0   0 0 0 0 0   0 0 0 0 0  0 0 0 0.32 0" type="matrix" in="shadowBlurOuter1" result="shadowMatrixOuter1"></feColorMatrix>
            <feMerge>
                <feMergeNode in="shadowMatrixOuter1"></feMergeNode>
                <feMergeNode in="SourceGraphic"></feMergeNode>
            </feMerge>
        </filter>
    </defs>
    <g id="網頁" stroke="none" stroke-width="1" fill="none" fill-rule="evenodd">
        <g id="登入" transform="translate(-78.000000, -47.000000)">
            <g id="organism/metamask-logo" transform="translate(81.000000, 47.000000)">
                <g id="Group-11">
                    <g id="metamask-recreated-faux-shadow" filter="url(#filter-1)" transform="translate(27.000000, 38.250001)">
                        <polygon id="Path-16" fill="#CDBDB2" points="45.5625007 129.937502 66.234376 135.421877 66.234376 128.250002 67.921876 126.562502 79.7343762 126.562502 79.7343762 135.000002 79.7343762 140.906252 67.078126 140.906252 51.4687508 134.156252"></polygon>
                        <polygon id="Path-16-Copy" fill="#CDBDB2" transform="translate(96.187501, 133.734377) scale(-1, 1) translate(-96.187501, -133.734377) " points="79.3125012 129.937502 99.5625015 135.421877 99.5625015 128.250002 101.250002 126.562502 113.062502 126.562502 113.062502 135.000002 113.062502 140.906252 100.406251 140.906252 84.7968763 134.156252"></polygon>
                        <polygon id="Path-17" fill="#393939" points="67.921876 114.328127 66.234376 128.250002 68.343751 126.562502 90.2812513 126.562502 92.8125014 128.250002 91.1250014 114.328127 87.7500013 112.218752 70.8750011 112.640627"></polygon>
                        <polygon id="Path-20" fill="#F89C35" points="56.5312508 20.2500003 66.656251 43.8750007 71.2968761 112.640627 87.7500013 112.640627 92.8125014 43.8750007 102.093752 20.2500003"></polygon>
                        <g id="face/left">
                            <polygon id="Path-15" fill="#F89D35" points="12.2343752 72.1406261 0.421875006 106.312502 29.9531254 104.625002 48.9375007 104.625002 48.9375007 89.8593763 48.0937507 59.4843759 43.8750007 62.8593759"></polygon>
                            <polygon id="Path-8" fill="#D87C30" points="34.5937505 75.9375011 69.187501 76.7812511 65.390626 94.5000014 48.9375007 90.2812513"></polygon>
                            <polygon id="Path-9" fill="#EA8D3A" points="34.5937505 76.3593761 48.9375007 89.8593763 48.9375007 103.359377"></polygon>
                            <polygon id="Path-10" fill="#F89D35" points="48.9375007 90.2812513 65.812501 94.5000014 71.2968761 112.640627 67.500001 114.750002 48.9375007 103.781252"></polygon>
                            <polygon id="Path-11" fill="#EB8F35" points="48.9375007 103.781252 45.5625007 129.937502 67.921876 114.328127"></polygon>
                            <polygon id="Path-12" fill="#EA8E3A" points="69.187501 76.7812511 71.2968761 112.640627 64.968751 94.2890639"></polygon>
                            <polygon id="Path-13" fill="#D87C30" points="29.5312504 104.203127 48.9375007 103.781252 45.5625007 129.937502"></polygon>
                            <polygon id="Path-14" fill="#D87C30" points="9.70312514 141.328127 45.5625007 129.937502 29.5312504 104.203127 0.421875006 106.312502"></polygon>
                            <polygon id="Path-7" fill="#E8821E" points="66.656251 43.8750007 48.5156257 59.0625009 34.5937505 75.9375011 69.187501 77.2031262"></polygon>
                            <polygon id="Path-18" fill="#DFCEC3" points="45.5625007 129.937502 67.921876 114.328127 66.234376 127.828127 66.234376 135.421877 51.0468758 132.468752"></polygon>
                            <polygon id="Path-18-Copy" fill="#DFCEC3" transform="translate(102.093752, 124.875002) scale(-1, 1) translate(-102.093752, -124.875002) " points="91.1250014 129.937502 113.062502 114.328127 111.375002 127.828127 111.375002 135.421877 96.1875014 132.468752"></polygon>
                            <polygon id="Path-19-Copy" fill="#393939" transform="translate(56.320313, 89.226564) scale(-1, 1) translate(-56.320313, -89.226564) " points="52.7343758 84.3750013 48.0937507 94.0781264 64.546876 89.8593763"></polygon>
                            <polygon id="Path-21" fill="#E88F35" points="9.28125014 0.421875006 66.656251 43.8750007 56.9531258 20.2500003"></polygon>
                            <path d="M9.28125014,0.421875006 L1.68750003,23.6250004 L5.90625009,48.9375007 L2.95312504,50.6250008 L7.17187511,54.4218758 L3.79687506,57.3750009 L8.43750013,61.5937509 L5.48437508,64.125001 L12.2343752,72.5625011 L43.8750007,62.8593759 C59.3437509,50.4843758 66.937501,44.1562507 66.656251,43.8750007 C66.375001,43.5937506 47.2500007,29.1093754 9.28125014,0.421875006 Z" id="Path-22" fill="#8E5A30"></path>
                        </g>
                        <g id="face/left-copy" transform="translate(122.625002, 70.875001) scale(-1, 1) translate(-122.625002, -70.875001) translate(86.625001, 0.000000)">
                            <polygon id="Path-15" fill="#F89D35" points="12.2343752 72.1406261 0.421875006 106.312502 29.9531254 104.625002 48.9375007 104.625002 48.9375007 89.8593763 48.0937507 59.4843759 43.8750007 62.8593759"></polygon>
                            <polygon id="Path-8" fill="#D87C30" points="34.5937505 75.9375011 69.187501 76.7812511 65.390626 94.5000014 48.9375007 90.2812513"></polygon>
                            <polygon id="Path-9" fill="#EA8D3A" points="34.5937505 76.3593761 48.9375007 89.8593763 48.9375007 103.359377"></polygon>
                            <polygon id="Path-10" fill="#F89D35" points="48.9375007 90.2812513 65.812501 94.5000014 71.2968761 112.640627 67.500001 114.750002 48.9375007 103.781252"></polygon>
                            <polygon id="Path-11" fill="#EB8F35" points="48.9375007 103.781252 45.5625007 129.937502 67.500001 114.750002"></polygon>
                            <polygon id="Path-12" fill="#EA8E3A" points="69.187501 76.7812511 71.2968761 112.640627 64.968751 94.2890639"></polygon>
                            <polygon id="Path-13" fill="#D87C30" points="29.5312504 104.203127 48.9375007 103.781252 45.5625007 129.937502"></polygon>
                            <polygon id="Path-14" fill="#D87C30" points="9.70312514 141.328127 45.5625007 129.937502 29.5312504 104.203127 0.421875006 106.312502"></polygon>
                            <polygon id="Path-7" fill="#E8821E" points="66.656251 43.8750007 48.5156257 59.0625009 34.5937505 75.9375011 69.187501 77.2031262"></polygon>
                            <polygon id="Path-19-Copy" fill="#393939" transform="translate(56.320313, 89.226564) scale(-1, 1) translate(-56.320313, -89.226564) " points="52.7343758 84.3750013 48.0937507 94.0781264 64.546876 89.8593763"></polygon>
                            <polygon id="Path-21" fill="#E88F35" points="9.28125014 0.421875006 66.656251 43.8750007 56.9531258 20.2500003"></polygon>
                            <path d="M9.28125014,0.421875006 L1.68750003,23.6250004 L5.90625009,48.9375007 L2.95312504,50.6250008 L7.17187511,54.4218758 L3.79687506,57.3750009 L8.43750013,61.5937509 L5.48437508,64.125001 L12.2343752,72.5625011 L43.8750007,62.8593759 C59.3437509,50.4843758 66.937501,44.1562507 66.656251,43.8750007 C66.375001,43.5937506 47.2500007,29.1093754 9.28125014,0.421875006 Z" id="Path-22" fill="#8E5A30"></path>
                        </g>
                    </g>
                    <g id="logo/metamask-recreated">
                        <polygon id="Path-16" fill="#CDBDB2" points="60.7500009 173.250003 88.3125013 180.562503 88.3125013 171.000003 90.5625013 168.750003 106.312502 168.750003 106.312502 180.000003 106.312502 187.875003 89.4375013 187.875003 68.625001 178.875003"></polygon>
                        <polygon id="Path-16-Copy" fill="#CDBDB2" transform="translate(128.250002, 178.312503) scale(-1, 1) translate(-128.250002, -178.312503) " points="105.750002 173.250003 132.750002 180.562503 132.750002 171.000003 135.000002 168.750003 150.750002 168.750003 150.750002 180.000003 150.750002 187.875003 133.875002 187.875003 113.062502 178.875003"></polygon>
                        <polygon id="Path-17" fill="#393939" points="90.5625013 152.437502 88.3125013 171.000003 91.1250014 168.750003 120.375002 168.750003 123.750002 171.000003 121.500002 152.437502 117.000002 149.625002 94.5000014 150.187502"></polygon>
                        <polygon id="Path-20" fill="#FDC30D" points="75.3750011 27.0000004 88.8750013 58.5000009 95.0625014 150.187502 117.000002 150.187502 123.750002 58.5000009 136.125002 27.0000004"></polygon>
                        <polygon id="Path-15" fill="#FDC30D" points="16.3125002 96.1875014 0.562500008 141.750002 39.9375006 139.500002 65.250001 139.500002 65.250001 119.812502 64.125001 79.3125012 58.5000009 83.8125012"></polygon>
                        <polygon id="Path-8" fill="#DFA600" points="46.1250007 101.250002 92.2500014 102.375002 87.1875013 126.000002 65.250001 120.375002"></polygon>
                        <polygon id="Path-9" fill="#FFD244" points="46.1250007 101.812502 65.250001 119.812502 65.250001 137.812502"></polygon>
                        <polygon id="Path-10" fill="#FDC30D" points="65.250001 120.375002 87.7500013 126.000002 95.0625014 150.187502 90.0000013 153.000002 65.250001 138.375002"></polygon>
                        <polygon id="Path-11" fill="#FFC510" points="65.250001 138.375002 60.7500009 173.250003 90.5625013 152.437502"></polygon>
                        <polygon id="Path-12" fill="#FFCC2C" points="92.2500014 102.375002 95.0625014 150.187502 86.6250013 125.718752"></polygon>
                        <polygon id="Path-13" fill="#DDA800" points="39.3750006 138.937502 65.250001 138.375002 60.7500009 173.250003"></polygon>
                        <polygon id="Path-14" fill="#D39800" points="12.9375002 188.437503 60.7500009 173.250003 39.3750006 138.937502 0.562500008 141.750002"></polygon>
                        <polygon id="Path-7" fill="#EFB500" points="88.8750013 58.5000009 64.687501 78.7500012 46.1250007 101.250002 92.2500014 102.937502"></polygon>
                        <polygon id="Path-18" fill="#DFCEC3" points="60.7500009 173.250003 90.5625013 152.437502 88.3125013 170.437503 88.3125013 180.562503 68.062501 176.625003"></polygon>
                        <polygon id="Path-18-Copy" fill="#DFCEC3" transform="translate(136.125002, 166.500002) scale(-1, 1) translate(-136.125002, -166.500002) " points="121.500002 173.250003 150.750002 152.437502 148.500002 170.437503 148.500002 180.562503 128.250002 176.625003"></polygon>
                        <polygon id="Path-19-Copy" fill="#393939" transform="translate(75.093751, 118.968752) scale(-1, 1) translate(-75.093751, -118.968752) " points="70.312501 112.500002 64.125001 125.437502 86.0625013 119.812502"></polygon>
                        <polygon id="Path-21" fill="#E5B313" points="12.3750002 0.562500008 88.8750013 58.5000009 75.9375011 27.0000004"></polygon>
                        <path d="M12.3750002,0.562500008 L2.25000003,31.5000005 L7.87500012,65.250001 L3.93750006,67.500001 L9.56250014,72.5625011 L5.06250008,76.5000011 L11.2500002,82.1250012 L7.31250011,85.5000013 L16.3125002,96.7500014 L58.5000009,83.8125012 C79.1250012,67.312501 89.2500013,58.8750009 88.8750013,58.5000009 C88.5000013,58.1250009 63.0000009,38.8125006 12.3750002,0.562500008 Z" id="Path-22" fill="#AA8423"></path>
                        <polygon id="Path-15" fill="#FDC30D" transform="translate(178.593753, 110.531252) scale(-1, 1) translate(-178.593753, -110.531252) " points="162.000002 96.1875014 146.250002 141.750002 185.625003 139.500002 210.937503 139.500002 210.937503 119.812502 209.812503 79.3125012 204.187503 83.8125012"></polygon>
                        <polygon id="Path-8" fill="#DFA600" transform="translate(142.312502, 113.625002) scale(-1, 1) translate(-142.312502, -113.625002) " points="119.250002 101.250002 165.375002 102.375002 160.312502 126.000002 138.375002 120.375002"></polygon>
                        <polygon id="Path-9" fill="#FFD244" transform="translate(155.812502, 119.812502) scale(-1, 1) translate(-155.812502, -119.812502) " points="146.250002 101.812502 165.375002 119.812502 165.375002 137.812502"></polygon>
                        <polygon id="Path-10" fill="#FDC30D" transform="translate(131.343752, 136.687502) scale(-1, 1) translate(-131.343752, -136.687502) " points="116.437502 120.375002 138.937502 126.000002 146.250002 150.187502 141.187502 153.000002 116.437502 138.375002"></polygon>
                        <polygon id="Path-11" fill="#FFC510" transform="translate(136.125002, 155.812502) scale(-1, 1) translate(-136.125002, -155.812502) " points="126.000002 138.375002 121.500002 173.250003 150.750002 153.000002"></polygon>
                        <polygon id="Path-12" fill="#FFCC2C" transform="translate(120.656252, 126.281252) scale(-1, 1) translate(-120.656252, -126.281252) " points="122.062502 102.375002 124.875002 150.187502 116.437502 125.718752"></polygon>
                        <polygon id="Path-13" fill="#DDA800" transform="translate(159.187502, 155.812502) scale(-1, 1) translate(-159.187502, -155.812502) " points="146.250002 138.937502 172.125003 138.375002 167.625002 173.250003"></polygon>
                        <polygon id="Path-14" fill="#D39800" transform="translate(180.843753, 163.687502) scale(-1, 1) translate(-180.843753, -163.687502) " points="163.125002 188.437503 210.937503 173.250003 189.562503 138.937502 150.750002 141.750002"></polygon>
                        <polygon id="Path-7" fill="#EFB500" transform="translate(142.312502, 80.718751) scale(-1, 1) translate(-142.312502, -80.718751) " points="162.000002 58.5000009 137.812502 78.7500012 119.250002 101.250002 165.375002 102.937502"></polygon>
                        <polygon id="Path-19-Copy" fill="#393939" points="131.625002 112.500002 125.437502 125.437502 147.375002 119.812502"></polygon>
                        <polygon id="Path-21" fill="#E5B313" transform="translate(160.875002, 29.531250) scale(-1, 1) translate(-160.875002, -29.531250) " points="122.625002 0.562500008 199.125003 58.5000009 186.187503 27.0000004"></polygon>
                        <path d="M132.739957,0.562500008 L122.614957,31.5000005 L128.239957,65.250001 L124.302457,67.500001 L129.927457,72.5625011 L125.427457,76.5000011 L131.614957,82.1250012 L127.677457,85.5000013 L136.677457,96.7500014 L178.864958,83.8125012 C199.489958,67.312501 209.614958,58.8750009 209.239958,58.5000009 C208.864958,58.1250009 183.364958,38.8125006 132.739957,0.562500008 Z" id="Path-22" fill="#AA8423" transform="translate(165.932480, 48.656251) scale(-1, 1) translate(-165.932480, -48.656251) "></path>
                    </g>
                    <g id="text/trademark-stuffs" transform="translate(15.000000, 228.000000)" fill="#75787B" font-family="MicrosoftJhengHeiRegular, Microsoft JhengHei" font-size="23.6250004" font-weight="normal" letter-spacing="0.562500008">
                        <g transform="translate(0.000000, 5.000000)" id="OKADASHOP">
                            <text>
                                <tspan x="13.1929005" y="25">OKADA</tspan>
                                <tspan x="100.077179" y="25" font-family="MicrosoftJhengHeiBold, Microsoft JhengHei" font-weight="bold">SHOP</tspan>
                            </text>
                        </g>
                    </g>
                </g>
            </g>
        </g>
    </g>
</svg>