<?xml version="1.0" encoding="UTF-8"?>
<svg width="375px" height="324px" viewBox="0 0 375 324" version="1.1" xmlns="http://www.w3.org/2000/svg" xmlns:xlink="http://www.w3.org/1999/xlink">
    <!-- Generator: Sketch 55.2 (78181) - https://sketchapp.com -->
    <title>undraw_Taken_if77</title>
    <desc>Created with Sketch.</desc>
    <defs>
        <linearGradient x1="50%" y1="100.004407%" x2="50%" y2="-3.13124773e-15%" id="linearGradient-1">
            <stop stop-color="#808080" stop-opacity="0.25" offset="0%"></stop>
            <stop stop-color="#808080" stop-opacity="0.12" offset="54%"></stop>
            <stop stop-color="#808080" stop-opacity="0.1" offset="100%"></stop>
        </linearGradient>
        <linearGradient x1="36.9104509%" y1="103.528257%" x2="64.0169089%" y2="4.65100432%" id="linearGradient-2">
            <stop stop-color="#808080" stop-opacity="0.25" offset="0%"></stop>
            <stop stop-color="#808080" stop-opacity="0.12" offset="54%"></stop>
            <stop stop-color="#808080" stop-opacity="0.1" offset="100%"></stop>
        </linearGradient>
        <linearGradient x1="36.9888408%" y1="102.990254%" x2="64.0952988%" y2="4.11300106%" id="linearGradient-3">
            <stop stop-color="#808080" stop-opacity="0.25" offset="0%"></stop>
            <stop stop-color="#808080" stop-opacity="0.12" offset="54%"></stop>
            <stop stop-color="#808080" stop-opacity="0.1" offset="100%"></stop>
        </linearGradient>
        <linearGradient x1="50%" y1="100%" x2="50%" y2="-9.17895279e-15%" id="linearGradient-4">
            <stop stop-color="#808080" stop-opacity="0.25" offset="0%"></stop>
            <stop stop-color="#808080" stop-opacity="0.12" offset="54%"></stop>
            <stop stop-color="#808080" stop-opacity="0.1" offset="100%"></stop>
        </linearGradient>
    </defs>
    <g id="網頁" stroke="none" stroke-width="1" fill="none" fill-rule="evenodd">
        <g id="網頁錯誤" transform="translate(0.000000, -343.000000)" fill-rule="nonzero">
            <g id="undraw_Taken_if77" transform="translate(0.000000, 343.000000)">
                <g id="群組" opacity="0.8" transform="translate(127.000000, 8.000000)" fill="url(#linearGradient-1)">
                    <ellipse id="橢圓形" cx="66" cy="50.6373246" rx="65.757551" ry="50.2607895"></ellipse>
                </g>
                <ellipse id="橢圓形" fill="#FDC30D" cx="193" cy="59.5" rx="64" ry="49.5"></ellipse>
                <path d="M139.177965,64.4632875 C139.177965,36.9561188 167.809353,14.6567705 203.130777,14.6567705 C214.097034,14.5960932 224.953963,16.8489641 235,21.2698045 C223.759132,13.6376539 209.052665,9 192.957278,9 C157.635854,9 129,31.2993483 129,58.806517 C129,77.2763215 141.911144,93.3981173 161.092522,102 C147.663324,92.8683563 139.177965,79.4402607 139.177965,64.4632875 Z" id="路徑" fill="#FFFFFF" opacity="0.1"></path>
                <polygon id="路徑" fill="#FDC30D" opacity="0.2" points="193 79 264 201.502227 335 324 193 324 51 324 122 201.502227"></polygon>
                <g id="群組" opacity="0.3" transform="translate(152.000000, 199.000000)" fill="url(#linearGradient-2)">
                    <path d="M57.6796552,53.2826816 L63.2068966,36.9296089 C67.1091318,25.2376795 62.8873937,12.3765272 52.8068966,5.24692737 L52.8517241,5.22011173 C50.6776387,3.69413777 48.2935088,2.48985251 45.7734483,1.64469274 L45.7734483,1.64469274 L45.6972414,1.61787709 L45.612069,1.59106145 L45.612069,1.59106145 C43.1659303,0.766208263 40.6157591,0.287797041 38.0362069,0.169832402 C37.1238254,0.122891809 36.2096229,0.122891809 35.2972414,0.169832402 C33.7141672,0.252439728 32.1410179,0.46923712 30.5948276,0.817877095 C30.1465517,0.916201117 29.6982759,1.02793296 29.2903448,1.14860335 C28.8824138,1.26927374 28.4251724,1.39888268 27.9993103,1.53743017 C27.1475862,1.81899441 26.3093103,2.13631285 25.4889655,2.49832402 C25.0765517,2.67709497 24.6686207,2.86480447 24.2696552,3.06592179 C23.0632583,3.65978088 21.9021064,4.34093245 20.7955172,5.10391061 C20.4234483,5.35865922 20.0603448,5.62234637 19.7017241,5.89050279 C15.2707195,9.25002192 11.9536892,13.8587199 10.1803448,19.1195531 L1.49275862,44.8849162 C0.125466266,48.925673 -0.285712503,53.2270034 0.29137931,57.452514 C0.381034483,58.1005587 0.493103448,58.7441341 0.623103448,59.3832402 C0.753103448,60.0223464 0.914482759,60.652514 1.07137931,61.2782123 C1.19241379,61.6938547 1.31793103,62.1094972 1.45689655,62.5206704 C1.66310345,63.1329609 1.90517241,63.7452514 2.1337931,64.3441341 C2.29965517,64.7418994 2.47448276,65.1396648 2.65827586,65.5329609 C3.02137931,66.3150838 3.42482759,67.0793296 3.85965517,67.8256983 C4.29448276,68.572067 4.7562069,69.3005587 5.2762069,70.0067039 C5.65275862,70.5340782 6.05172414,71.052514 6.46413793,71.5530726 C7.02,72.2234637 7.60275862,72.8938547 8.22137931,73.4882682 C10.8988717,76.1795621 14.1032734,78.2926691 17.6351724,79.6960894 L17.6351724,79.6960894 L17.6351724,79.6960894 L17.7875862,79.7586592 C17.9772486,79.4232252 18.1868164,79.0993723 18.4151724,78.7888268 C19.76,76.9519553 22.1,75.6603352 24.327931,76.1430168 C24.4893103,76.1787709 24.6506897,76.227933 24.812069,76.277095 C25.9417241,76.6748603 27.0534483,77.3854749 28.1427586,77.7340782 C28.9447586,78.0933556 29.8648275,78.0819098 30.6575862,77.7027933 C32.8362069,76.5452514 32.0293103,72.8938547 33.8986207,71.2938547 C33.9856482,71.2200399 34.0769553,71.1513924 34.172069,71.0882682 C34.1456297,71.0558301 34.1216551,71.0214702 34.1003448,70.9854749 C35.5437931,70.0916201 37.5431034,70.6860335 39.2062069,71.2625698 C40.9993103,71.8927374 43.3393103,72.3173184 44.5855172,70.8558659 C45.4282759,69.8547486 45.3655172,68.3307263 46.167931,67.2804469 C47.1003448,66.073743 48.8575862,65.9396648 50.3772414,66.1541899 L50.4534483,66.1765363 C53.3672414,67.3743017 56.55,65.3854749 56.3258621,62.252514 C56.0613793,58.073743 57.3793103,54.1363128 57.6796552,53.2826816 Z" id="路徑"></path>
                </g>
                <path d="M171.528546,276.058 C172.830196,274.263714 175.063508,273.007714 177.203208,273.496657 C179.342907,273.985599 181.371164,276.035571 183.274606,275.008343 C185.877907,273.608799 184.032416,268.463684 188.258323,268.082399 C189.138945,268.023833 190.020741,268.177617 190.83042,268.53097 C192.613503,269.262142 195.404028,270.087513 196.777002,268.441256 C197.583847,267.472341 197.525897,265.996541 198.297081,264.991741 C199.188622,263.825455 200.887009,263.677426 202.335764,263.901712 L202.407087,263.924141 C205.20207,265.085941 208.260057,263.157083 208.04163,260.12474 C207.760794,256.087597 209.035699,252.28371 209.312076,251.458339 L214.607833,235.619279 C219.297198,221.483734 211.757608,206.191549 197.735409,201.397759 L197.735409,201.397759 C183.689537,196.68517 168.498537,204.273274 163.736473,218.380676 L155.387186,243.289852 C150.882485,256.889283 157.686349,271.665931 170.908924,277 C171.09697,276.674071 171.303867,276.35953 171.528546,276.058 L171.528546,276.058 Z" id="路徑" fill="#FFFFFF"></path>
                <circle id="橢圓形" fill="#000000" opacity="0.2" cx="181" cy="217" r="3"></circle>
                <circle id="橢圓形" fill="#000000" opacity="0.2" cx="198" cy="222" r="3"></circle>
                <ellipse id="橢圓形" fill="#E0E0E0" transform="translate(185.527374, 230.431119) rotate(-71.400000) translate(-185.527374, -230.431119) " cx="185.527374" cy="230.431119" rx="4.35046747" ry="2.90574659"></ellipse>
                <circle id="橢圓形" fill="#FFFFFF" cx="246.5" cy="217.5" r="4.5"></circle>
                <circle id="橢圓形" fill="#FFFFFF" cx="260" cy="210" r="2"></circle>
                <g id="群組" opacity="0.5" transform="translate(158.000000, 24.000000)">
                    <g opacity="0.3" fill="url(#linearGradient-3)" id="路徑">
                        <path d="M57.6796552,53.2826816 L63.2068966,36.9296089 C67.1091318,25.2376795 62.8873937,12.3765272 52.8068966,5.24692737 L52.8517241,5.22011173 C50.6776387,3.69413777 48.2935088,2.48985251 45.7734483,1.64469274 L45.7734483,1.64469274 L45.6972414,1.61787709 L45.612069,1.59106145 L45.612069,1.59106145 C43.1659303,0.766208263 40.6157591,0.287797041 38.0362069,0.169832402 C37.1238254,0.122891809 36.2096229,0.122891809 35.2972414,0.169832402 C33.7141672,0.252439728 32.1410179,0.46923712 30.5948276,0.817877095 C30.1465517,0.916201117 29.6982759,1.02793296 29.2903448,1.14860335 C28.8824138,1.26927374 28.4251724,1.39888268 27.9993103,1.53743017 C27.1475862,1.81899441 26.3093103,2.13631285 25.4889655,2.49832402 C25.0765517,2.67709497 24.6686207,2.86480447 24.2696552,3.06592179 C23.0632583,3.65978088 21.9021064,4.34093245 20.7955172,5.10391061 C20.4234483,5.35865922 20.0603448,5.62234637 19.7017241,5.89050279 C15.2707195,9.25002192 11.9536892,13.8587199 10.1803448,19.1195531 L1.49275862,44.8849162 C0.125466266,48.925673 -0.285712503,53.2270034 0.29137931,57.452514 C0.381034483,58.1005587 0.493103448,58.7441341 0.623103448,59.3832402 C0.753103448,60.0223464 0.914482759,60.652514 1.07137931,61.2782123 C1.19241379,61.6938547 1.31793103,62.1094972 1.45689655,62.5206704 C1.66310345,63.1329609 1.90517241,63.7452514 2.1337931,64.3441341 C2.29965517,64.7418994 2.47448276,65.1396648 2.65827586,65.5329609 C3.02137931,66.3150838 3.42482759,67.0793296 3.85965517,67.8256983 C4.29448276,68.572067 4.7562069,69.3005587 5.2762069,70.0067039 C5.65275862,70.5340782 6.05172414,71.052514 6.46413793,71.5530726 C7.02,72.2234637 7.60275862,72.8715084 8.22137931,73.4882682 C10.8988717,76.1795621 14.1032734,78.2926691 17.6351724,79.6960894 L17.6351724,79.6960894 L17.6351724,79.6960894 L17.7875862,79.7586592 C17.9772486,79.4232252 18.1868164,79.0993723 18.4151724,78.7888268 C19.76,76.9519553 22.1,75.6603352 24.327931,76.1430168 C24.4893103,76.1787709 24.6506897,76.227933 24.812069,76.277095 C25.9417241,76.6748603 27.0534483,77.3854749 28.1427586,77.7340782 C28.9447586,78.0933556 29.8648275,78.0819098 30.6575862,77.7027933 C32.8362069,76.5452514 32.0293103,72.8938547 33.8986207,71.2938547 C33.9856482,71.2200399 34.0769553,71.1513924 34.172069,71.0882682 C34.1456297,71.0558301 34.1216551,71.0214702 34.1003448,70.9854749 C35.5437931,70.0916201 37.5431034,70.6860335 39.2062069,71.2625698 C40.9993103,71.8927374 43.3393103,72.3173184 44.5855172,70.8558659 C45.4282759,69.8547486 45.3655172,68.3307263 46.167931,67.2804469 C47.1003448,66.073743 48.8575862,65.9396648 50.3772414,66.1541899 L50.4534483,66.1541899 C53.3672414,67.3519553 56.55,65.3631285 56.3258621,62.2301676 C56.0613793,58.073743 57.3793103,54.1363128 57.6796552,53.2826816 Z"></path>
                    </g>
                    <path d="M18.9217241,77.4122905 C20.2306897,75.624581 22.4765517,74.3731844 24.6282759,74.8603352 C26.78,75.347486 28.8196552,77.3899441 30.7337931,76.3664804 C33.3517241,74.972067 31.4958621,69.8458101 35.7455172,69.4659218 C36.6310888,69.4075705 37.5178402,69.5607913 38.332069,69.9128492 C40.1251724,70.6413408 42.9313793,71.4636872 44.312069,69.8234637 C45.1234483,68.8581006 45.0651724,67.3877095 45.8406897,66.3865922 C46.7372414,65.224581 48.4451724,65.077095 49.902069,65.3005587 L49.9737931,65.322905 C52.7844828,66.4804469 55.8596552,64.5586592 55.64,61.5374302 C55.3575862,57.5150838 56.6396552,53.7251397 56.9175862,52.9027933 L62.2431034,37.1217877 C66.9588209,23.0380534 59.376861,7.80191837 45.2758621,3.02569832 L45.2758621,3.02569832 C31.1510559,-1.6696181 15.8746875,5.89067422 11.0858621,19.9463687 L2.68965517,44.7642458 C-1.84036092,58.3138321 5.00173831,73.0363194 18.2986207,78.350838 C18.4877237,78.0261032 18.6957827,77.7127151 18.9217241,77.4122905 Z" id="路徑" fill="#FFFFFF"></path>
                    <ellipse id="橢圓形" fill="#000000" opacity="0.2" cx="28.8465517" cy="17.4659218" rx="2.91827586" ry="2.90949721"></ellipse>
                    <ellipse id="橢圓形" fill="#000000" opacity="0.2" cx="45.4417241" cy="23.0301676" rx="2.91827586" ry="2.90949721"></ellipse>
                </g>
                <path d="M254.268528,45 C255.100988,48.1655816 255.520795,51.4224894 255.517841,54.6923077 C255.517841,81.6853846 226.810521,103.567972 191.395423,103.567972 C162.410479,103.55035 137.921268,88.8973427 130,68.7902098 C135.883859,91.1574126 161.792539,108 192.873105,108 C228.288203,108 257,86.1174126 257,59.1243357 C256.990876,54.2900031 256.064517,49.499833 254.268528,45 L254.268528,45 Z" id="路徑" fill="#000000" opacity="0.1"></path>
                <g id="群組" opacity="0.8" transform="translate(60.000000, 46.000000)" fill="url(#linearGradient-4)">
                    <ellipse id="橢圓形" cx="132.5" cy="34.8564103" rx="132.134175" ry="34.7352564"></ellipse>
                </g>
                <path d="M193,48 C122.309964,48 65,62.7719744 65,81 L321,81 C321,62.7719744 263.690036,48 193,48 Z" id="路徑" fill="#FFFFFF"></path>
                <path d="M193,114 C263.690036,114 321,99.2260521 321,81 L65,81 C65,99.2260521 122.309964,114 193,114 Z" id="路徑" fill="#FFFFFF"></path>
                <path d="M193,114 C263.690036,114 321,99.2260521 321,81 L65,81 C65,99.2260521 122.309964,114 193,114 Z" id="路徑" fill="#000000" opacity="0.05"></path>
                <rect id="矩形" fill="#000000" opacity="0.05" x="132" y="72" width="122" height="17" rx="8.5"></rect>
                <path d="M59.5076364,25.0490379 C58.7411728,24.7148359 58.3463324,23.8603712 58.588842,23.0606968 C58.607656,23.0010335 58.6196837,22.9394425 58.6246974,22.8770887 L58.6246974,22.8770887 C58.6481902,22.5131281 58.4294287,22.1770357 58.0869358,22.0509032 C57.7444429,21.9247708 57.3597095,22.0386095 57.1411806,22.3307427 L57.1411806,22.3307427 C57.1052928,22.3809199 57.0752208,22.435005 57.0515421,22.4919595 C56.718618,23.2593111 55.8620479,23.654475 55.0615679,23.4099999 C55.0017345,23.3916816 54.9401457,23.3796741 54.877809,23.374174 L54.877809,23.374174 C54.5135495,23.3507005 54.1771811,23.5692825 54.050945,23.9114943 C53.924709,24.2537062 54.0386412,24.6381238 54.3310143,24.8564734 L54.3310143,24.8564734 C54.3805205,24.8946318 54.4347523,24.9262411 54.4923636,24.9505165 C55.2588272,25.2847185 55.6536676,26.1391833 55.411158,26.9388577 C55.3927734,26.9971003 55.3807516,27.05716 55.3753026,27.1179876 L55.3753026,27.1179876 C55.3495574,27.4828146 55.5675671,27.820941 55.9106765,27.9483362 C56.253786,28.0757315 56.6398793,27.9619063 56.8588194,27.6688118 L56.8588194,27.6688118 C56.8956506,27.6176269 56.9257748,27.561943 56.9484579,27.5031167 C57.289472,26.7445208 58.1438548,26.3599795 58.9384321,26.6074675 C58.9982655,26.6257859 59.0598543,26.6377933 59.122191,26.6432935 L59.122191,26.6432935 C59.4864505,26.666767 59.8228189,26.448185 59.949055,26.1059732 C60.075291,25.7637613 59.9613588,25.3793437 59.6689857,25.1609941 L59.6689857,25.1609941 C59.6205267,25.1165446 59.566247,25.0788812 59.5076364,25.0490379 Z" id="路徑" fill="#4D8AF0" opacity="0.5"></path>
                <path d="M287.505791,162.049038 C286.745245,161.706791 286.359571,160.854491 286.606045,160.060697 C286.62493,160.001033 286.637003,159.939442 286.642035,159.877089 L286.642035,159.877089 C286.665616,159.513128 286.446034,159.177036 286.102257,159.050903 C285.758481,158.924771 285.372305,159.03861 285.152957,159.330743 L285.152957,159.330743 C285.116934,159.38092 285.08675,159.435005 285.062982,159.49196 C284.72881,160.259311 283.869029,160.654475 283.065548,160.41 C283.00549,160.391682 282.94367,160.379674 282.8811,160.374174 L282.8811,160.374174 C282.515475,160.3507 282.177845,160.569282 282.051136,160.911494 C281.924427,161.253706 282.038786,161.638124 282.332255,161.856473 L282.332255,161.856473 C282.381947,161.894632 282.436382,161.926241 282.494209,161.950517 C283.254755,162.292763 283.640429,163.145063 283.393955,163.938858 C283.375501,163.9971 283.363434,164.05716 283.357965,164.117988 L283.357965,164.117988 C283.332123,164.482815 283.55095,164.820941 283.895346,164.948336 C284.239742,165.075731 284.627282,164.961906 284.847043,164.668812 L284.847043,164.668812 C284.884013,164.617627 284.91425,164.561943 284.937018,164.503117 C285.27931,163.744521 286.136896,163.359979 286.934452,163.607468 C286.99451,163.625786 287.05633,163.637793 287.1189,163.643293 L287.1189,163.643293 C287.484525,163.666767 287.822155,163.448185 287.948864,163.105973 C288.075573,162.763761 287.961214,162.379344 287.667745,162.160994 L287.667745,162.160994 C287.619104,162.116545 287.564621,162.078881 287.505791,162.049038 L287.505791,162.049038 Z" id="路徑" fill="#4D8AF0" opacity="0.5"></path>
                <path d="M35.5076364,226.049038 C34.7411728,225.714836 34.3463324,224.860371 34.588842,224.060697 C34.607656,224.001033 34.6196837,223.939442 34.6246974,223.877089 L34.6246974,223.877089 C34.6481902,223.513128 34.4294287,223.177036 34.0869358,223.050903 C33.7444429,222.924771 33.3597095,223.03861 33.1411806,223.330743 L33.1411806,223.330743 C33.1052928,223.38092 33.0752208,223.435005 33.0515421,223.49196 C32.718618,224.259311 31.8620479,224.654475 31.0615679,224.41 C31.0017345,224.391682 30.9401457,224.379674 30.877809,224.374174 L30.877809,224.374174 C30.5135495,224.3507 30.1771811,224.569282 30.050945,224.911494 C29.924709,225.253706 30.0386412,225.638124 30.3310143,225.856473 L30.3310143,225.856473 C30.3805205,225.894632 30.4347523,225.926241 30.4923636,225.950517 C31.2588272,226.284719 31.6536676,227.139183 31.411158,227.938858 C31.3927734,227.9971 31.3807516,228.05716 31.3753026,228.117988 L31.3753026,228.117988 C31.3495574,228.482815 31.5675671,228.820941 31.9106765,228.948336 C32.253786,229.075731 32.6398793,228.961906 32.8588194,228.668812 L32.8588194,228.668812 C32.8956506,228.617627 32.9257748,228.561943 32.9484579,228.503117 C33.289472,227.744521 34.1438548,227.359979 34.9384321,227.607468 C34.9982655,227.625786 35.0598543,227.637793 35.122191,227.643293 L35.122191,227.643293 C35.4864505,227.666767 35.8228189,227.448185 35.949055,227.105973 C36.075291,226.763761 35.9613588,226.379344 35.6689857,226.160994 L35.6689857,226.160994 C35.6205267,226.116545 35.566247,226.078881 35.5076364,226.049038 Z" id="路徑" fill="#4D8AF0" opacity="0.5"></path>
                <path d="M11.4852268,78.0490379 C10.727522,77.706791 10.3432879,76.8544913 10.588842,76.0606968 C10.607656,76.0010335 10.6196837,75.9394425 10.6246974,75.8770887 L10.6246974,75.8770887 C10.6481902,75.5131281 10.4294287,75.1770357 10.0869358,75.0509032 C9.74444288,74.9247708 9.35970953,75.0386095 9.1411806,75.3307427 L9.1411806,75.3307427 C9.10529279,75.3809199 9.07522083,75.435005 9.05154212,75.4919595 C8.71861805,76.2593111 7.86204791,76.654475 7.06156791,76.4099999 C7.00173446,76.3916816 6.94014565,76.3796741 6.87780903,76.374174 L6.87780903,76.374174 C6.5135495,76.3507005 6.1771811,76.5692825 6.05094505,76.9114943 C5.924709,77.2537062 6.03864122,77.6381238 6.33101432,77.8564734 L6.33101432,77.8564734 C6.38052054,77.8946318 6.43475231,77.9262411 6.49236358,77.9505165 C7.25882721,78.2847185 7.65366759,79.1391833 7.41115798,79.9388577 C7.39277336,79.9971003 7.38075156,80.05716 7.37530259,80.1179876 L7.37530259,80.1179876 C7.34955741,80.4828146 7.56756707,80.820941 7.91067653,80.9483362 C8.253786,81.0757315 8.63987932,80.9619063 8.8588194,80.6688118 L8.8588194,80.6688118 C8.89565062,80.6176269 8.92577479,80.561943 8.94845788,80.5031167 C9.28947199,79.7445208 10.1438548,79.3599795 10.9384321,79.6074675 C10.9982655,79.6257859 11.0598543,79.6377933 11.122191,79.6432935 L11.122191,79.6432935 C11.4864505,79.666767 11.8228189,79.448185 11.949055,79.1059732 C12.075291,78.7637613 11.9613588,78.3793437 11.6689857,78.1609941 L11.6689857,78.1609941 C11.6136392,78.1147612 11.551706,78.0770281 11.4852268,78.0490379 Z" id="路徑" fill="#4D8AF0" opacity="0.5"></path>
                <path d="M282.507121,3.02453968 C281.762185,2.6850426 281.384426,1.83959094 281.625842,1.05217433 C281.644339,0.992990441 281.656164,0.931894285 281.661094,0.870041491 L281.661094,0.870041491 C281.68419,0.509005207 281.469116,0.175613259 281.132394,0.0504942442 C280.795673,-0.0746247709 280.417424,0.0382992909 280.202577,0.328085244 L280.202577,0.328085244 C280.167294,0.377859319 280.137729,0.431509869 280.11445,0.488006759 C279.779182,1.24050757 278.939198,1.62195917 278.158011,1.37645962 C278.099186,1.35828845 278.038635,1.34637746 277.977349,1.34092151 L277.977349,1.34092151 C277.584823,1.25790962 277.191078,1.47670184 277.051099,1.85561017 C276.911121,2.2345185 277.066977,2.65966723 277.417737,2.85573364 L277.417737,2.85573364 C277.466409,2.89358549 277.519727,2.92494075 277.576367,2.94902119 C278.321303,3.28851828 278.699062,4.13396993 278.457646,4.92138655 C278.439571,4.97916116 278.427752,5.03873827 278.422394,5.09907712 L278.422394,5.09907712 C278.384052,5.47563939 278.607196,5.82947509 278.961698,5.95424364 C279.3162,6.0790122 279.709298,5.94206541 279.911755,5.62326431 L279.911755,5.62326431 C279.947966,5.57249069 279.977582,5.51725412 279.999883,5.45890053 C280.335151,4.70639972 281.175135,4.32494812 281.956322,4.57044767 C282.015147,4.58861884 282.075698,4.60052983 282.136984,4.60598578 L282.136984,4.60598578 C282.495105,4.62927067 282.825805,4.41244492 282.949913,4.07298268 C283.074022,3.73352043 282.96201,3.3521915 282.674564,3.13559629 L282.674564,3.13559629 C282.624208,3.09082279 282.567838,3.05343548 282.507121,3.02453968 L282.507121,3.02453968 Z" id="路徑" fill="#4D8AF0" opacity="0.5"></path>
                <g id="群組" opacity="0.5" transform="translate(46.000000, 115.000000)" fill="#47E6B1">
                    <rect id="矩形" x="3.29411765" y="0.377777778" width="1.41176471" height="7.55555556"></rect>
                    <polygon id="矩形" transform="translate(4.000000, 4.155556) rotate(90.000000) translate(-4.000000, -4.155556) " points="3.33333333 0.155555556 4.66666667 0.155555556 4.66666667 8.15555556 3.33333333 8.15555556"></polygon>
                </g>
                <g id="群組" opacity="0.5" transform="translate(367.000000, 79.000000)" fill="#47E6B1">
                    <rect id="矩形" x="3.29411765" y="0.377777778" width="1.41176471" height="7.55555556"></rect>
                    <polygon id="矩形" transform="translate(4.000000, 4.155556) rotate(90.000000) translate(-4.000000, -4.155556) " points="3.33333333 0.155555556 4.66666667 0.155555556 4.66666667 8.15555556 3.33333333 8.15555556"></polygon>
                </g>
                <g id="群組" opacity="0.5" transform="translate(323.000000, 204.000000)" fill="#47E6B1">
                    <rect id="矩形" x="3.29411765" y="0.377777778" width="1.41176471" height="7.55555556"></rect>
                    <polygon id="矩形" transform="translate(4.000000, 4.155556) rotate(90.000000) translate(-4.000000, -4.155556) " points="3.33333333 0.155555556 4.66666667 0.155555556 4.66666667 8.15555556 3.33333333 8.15555556"></polygon>
                </g>
                <circle id="橢圓形" fill="#F55F44" opacity="0.5" cx="323" cy="37" r="3"></circle>
                <circle id="橢圓形" fill="#F55F44" opacity="0.5" cx="3" cy="6" r="3"></circle>
                <circle id="橢圓形" fill="#F55F44" opacity="0.5" cx="83" cy="160" r="3"></circle>
                <ellipse id="橢圓形" fill="#000000" opacity="0.05" cx="105" cy="69" rx="15" ry="3"></ellipse>
                <ellipse id="橢圓形" fill="#000000" opacity="0.05" cx="105" cy="93" rx="15" ry="3"></ellipse>
                <ellipse id="橢圓形" fill="#000000" opacity="0.05" cx="277" cy="69" rx="15" ry="3"></ellipse>
                <ellipse id="橢圓形" fill="#000000" opacity="0.05" cx="277" cy="93" rx="15" ry="3"></ellipse>
                <ellipse id="橢圓形" fill="#000000" opacity="0.05" cx="193" cy="55" rx="15" ry="3"></ellipse>
                <ellipse id="橢圓形" fill="#000000" opacity="0.05" cx="204" cy="23" rx="15" ry="3"></ellipse>
                <ellipse id="橢圓形" fill="#000000" opacity="0.05" cx="175" cy="36" rx="15" ry="3"></ellipse>
                <ellipse id="橢圓形" fill="#000000" opacity="0.05" cx="231" cy="42" rx="15" ry="3"></ellipse>
                <ellipse id="橢圓形" fill="#000000" opacity="0.05" cx="193" cy="102" rx="15" ry="3"></ellipse>
            </g>
        </g>
    </g>
</svg>