<?xml version="1.0" encoding="UTF-8"?>
<svg width="270px" height="221px" viewBox="0 0 270 221" version="1.1" xmlns="http://www.w3.org/2000/svg" xmlns:xlink="http://www.w3.org/1999/xlink">
    <!-- Generator: Sketch 55.2 (78181) - https://sketchapp.com -->
    <title>undraw_broadcast_jhwx</title>
    <desc>Created with Sketch.</desc>
    <g id="網頁" stroke="none" stroke-width="1" fill="none" fill-rule="evenodd">
        <g id="連不到網路" transform="translate(-53.000000, -185.000000)">
            <g id="undraw_broadcast_jhwx" transform="translate(53.000000, 185.000000)">
                <path d="M250.243798,188.508445 C249.403687,189.246752 248.542781,189.965104 247.661081,190.663502 C247.513853,190.783227 247.361635,190.912929 247.211912,191.020183 C244.074042,193.453456 240.779709,195.678149 237.350175,197.679906 C233.414962,200.004573 229.307569,202.119721 225.145277,204.115143 C218.88879,207.140949 212.480479,209.842508 205.945831,212.209076 L205.651376,212.31633 C202.7767,213.340647 199.869583,214.285978 196.930027,215.152324 L196.877624,215.16729 C194.826423,215.765916 192.761081,216.318815 190.681598,216.825985 L190.397125,216.895824 C187.336127,217.634131 184.244352,218.261857 181.121802,218.779004 L180.403132,218.893741 C178.120692,219.252917 175.822448,219.545579 173.5084,219.771727 C160.502485,221.018866 147.339362,220.006189 134.413299,218.255206 C108.30914,214.715825 82.5518385,208.081046 59.0528551,197.679906 C50.0990932,193.735786 41.4337484,189.167483 33.1208773,184.008768 C31.9430584,183.27545 30.7727257,182.527166 29.6098791,181.763917 C29.4277165,181.641698 29.2430584,181.514489 29.0608958,181.397258 C17.597125,173.73733 7.24379781,164.40873 2.42771648,152.635737 C-2.94483436,139.493386 0.493797806,122.836597 13.8016536,115.056944 C18.3981416,112.388066 23.7008218,110.933902 29.0658865,109.734154 L29.6148699,109.611934 C30.5231878,109.412392 31.4315058,109.220333 32.3373283,109.028273 C35.5039642,108.357313 38.6880677,107.69134 41.8422266,106.945551 C47.7038717,105.566215 53.4632063,103.919992 58.8307664,101.503036 C59.2266998,101.326774 59.6209697,101.144692 60.013576,100.956789 C64.2132987,98.9613669 68.7823375,96.0580272 72.2409327,92.5710264 C75.2204152,89.5604327 77.3639457,86.1083518 77.7182895,82.4043488 C77.8204853,81.3520925 77.77344,80.2906813 77.5785483,79.2515813 C77.2092322,77.2811016 76.852393,75.3555189 76.5803967,73.4748332 C76.0813209,69.9429354 75.9216167,66.5656828 76.6028551,63.3081556 C77.2965704,59.9882715 78.8661638,56.7931012 81.8656093,53.6952078 C82.3197682,53.2262835 82.8071989,52.7598535 83.3279013,52.2959178 C85.7499282,50.1717109 88.4897623,48.4396608 91.4478643,47.1626934 C91.8155168,46.9964082 92.1848329,46.8409316 92.5558126,46.6962634 C100.790563,43.3639079 110.689731,42.6680043 119.937606,43.1269515 C128.578028,43.570373 137.163607,44.7629607 145.597587,46.6912749 C146.266349,46.8409316 146.93511,46.9980711 147.59389,47.1577049 C154.771252,48.8946364 161.833515,51.0763579 168.739731,53.6902192 C189.04463,61.3227103 208.04694,72.3199824 225.619399,84.2575974 L226.457846,84.8287871 C226.868752,85.1098091 227.279657,85.392494 227.690563,85.6768417 C228.532338,86.2555142 229.369121,86.8375124 230.200914,87.4228364 C230.819768,87.8535151 231.436959,88.2875194 232.052485,88.7248495 L233.377532,89.6651924 L234.203502,90.2588306 C238.695184,93.5013921 243.1145,96.8611847 247.209417,100.465417 L247.658585,100.864501 C252.649343,105.304316 257.168474,110.108296 260.786774,115.470994 C276.13585,138.228787 271.584278,169.758957 250.243798,188.508445 Z" id="路徑" fill="#E9E9E9"></path>
                <path d="M245.188246,18.880163 C237.998253,13.156607 228.972073,10.2127731 219.773328,10.5912419 C218.206158,10.647508 216.860995,9.49037235 216.689867,7.93878713 L216.176708,3.37764027 C216.085008,2.5543316 216.339692,1.72995635 216.880308,1.10018615 C217.420924,0.470415944 218.199269,0.0914037098 219.030597,0.0531108342 C245.101535,-1.15025709 267.528301,18.2341355 269.986471,44.0964051 C270.065289,44.9209658 269.797285,45.7411693 269.246238,46.3618269 C268.69519,46.9824844 267.910377,47.3480939 267.078565,47.3716491 L262.469129,47.506064 C260.895369,47.5513611 259.554538,46.3772231 259.399173,44.8177653 C258.370058,34.6181881 253.245445,25.2648111 245.188246,18.880163 Z M241.06793,23.3733497 C248.840341,29.6600072 253.83102,38.8287089 254.939154,48.857081 C255.026903,49.6856636 254.769413,50.5137531 254.229023,51.1408688 C253.688634,51.7679845 252.914609,52.1369555 252.094341,52.1584538 L248.72908,52.2570022 C247.207029,52.2978841 245.90502,51.1541762 245.725486,49.6185917 C243.939519,35.039161 231.613012,24.1760092 217.149441,24.4349852 C215.633063,24.4629968 214.344984,23.3139518 214.176721,21.7831362 L213.801823,18.3832149 C213.70898,17.5535616 213.962208,16.7223037 214.500148,16.0908583 C215.038088,15.459413 215.811653,15.0854002 216.633405,15.0594448 C225.490901,14.8028029 234.150302,17.7491845 241.06793,23.3733497 Z M227.220558,41.390814 C223.621593,38.5003584 219.163735,36.8962972 214.552929,36.8326489 C213.051017,36.8299004 211.78745,35.7035681 211.608919,34.208385 L211.427952,32.5798367 C211.330213,31.7518336 211.587908,30.9211823 212.136828,30.2948492 C212.685749,29.6685161 213.47421,29.3054772 214.305755,29.2961877 C228.328086,29.3286059 240.214607,39.6465287 242.253988,53.5562467 C242.380646,54.3935924 242.143572,55.245233 241.602725,55.895786 C241.061877,56.5463391 240.269045,56.9335098 239.424737,56.9593816 L237.796042,57.008061 C236.294302,57.0413117 235.00414,55.945307 234.790239,54.4546035 C233.989388,49.3026346 231.287768,44.6401672 227.220558,41.390814 Z" id="合併形狀" fill="#FFA200"></path>
                <path d="M24.8117544,18.880163 C16.7545547,25.2648111 11.6299423,34.6181881 10.6008273,44.8177653 C10.4454617,46.3772231 9.10463129,47.5513611 7.53087087,47.506064 L2.92143488,47.3716491 C2.08962262,47.3480939 1.30480954,46.9824844 0.753762424,46.3618269 C0.202715303,45.7411693 -0.0652886982,44.9209658 0.013528971,44.0964051 C2.47169877,18.2341355 24.8984653,-1.15025709 50.9694034,0.0531108342 C51.8007311,0.0914037098 52.5790761,0.470415944 53.1196922,1.10018615 C53.6603084,1.72995635 53.9149922,2.5543316 53.8232925,3.37764027 L53.3101326,7.92982613 C53.1390047,9.48141136 51.7938423,10.6385471 50.226672,10.5822809 C41.0267909,10.2063395 32.0004866,13.1533964 24.8117544,18.880163 Z M42.7794422,41.390814 C38.712232,44.6401672 36.0106124,49.3026346 35.2097612,54.4546035 C34.9958597,55.945307 33.7056975,57.0413117 32.2039579,57.008061 L30.5752627,56.9593816 C29.7309554,56.9335098 28.938123,56.5463391 28.3972753,55.895786 C27.8564276,55.245233 27.6193542,54.3935924 27.7460117,53.5562467 C29.7853929,39.6465287 41.6719143,29.3286059 55.6942447,29.2961877 C56.5257905,29.3054772 57.3142507,29.6685161 57.8631715,30.2948492 C58.4120923,30.9211823 58.6697869,31.7518336 58.5720476,32.5798367 L58.3910815,34.208385 C58.2125503,35.7035681 56.9489832,36.8299004 55.4470715,36.8326489 C50.8362655,36.8962972 46.3784074,38.5003584 42.7794422,41.390814 Z" id="合併形狀" fill="#FFA200"></path>
                <path d="M28.1402809,23.3733497 C35.057909,17.7491845 43.71731,14.8028029 52.5748062,15.0594448 C53.3965583,15.0854002 54.1701233,15.459413 54.7080635,16.0908583 C55.2460036,16.7223037 55.4992313,17.5535616 55.4063884,18.3832149 L55.0314905,21.7831362 C54.8632269,23.3139518 53.5751485,24.4629968 52.0587702,24.4349852 C37.5951994,24.1760092 25.2686918,35.039161 23.4827251,49.6185917 C23.3031913,51.1541762 22.0011823,52.2978841 20.479131,52.2570022 L17.1138705,52.1584538 C16.2936022,52.1369555 15.5195775,51.7679845 14.9791879,51.1408688 C14.4387983,50.5137531 14.1813084,49.6856636 14.2690567,48.857081 C15.3771912,38.8287089 20.3678699,29.6600072 28.1402809,23.3733497 L28.1402809,23.3733497 Z" id="路徑" fill="#FFA200"></path>
                <rect id="矩形" fill="#E9E9E9" x="53.0498534" y="49.8826979" width="163.900293" height="135.395894" rx="44.36"></rect>
                <rect id="矩形" fill="#FFFFFF" x="56.2170088" y="51.4662757" width="159.941349" height="131.43695" rx="44.36"></rect>
                <path d="M142.71849,106.211487 C143.870311,106.213972 144.803444,107.173304 144.805862,108.357464 L144.805862,126.803827 C144.803444,127.987986 143.870311,128.947318 142.71849,128.949803 L126.485327,128.949803 C125.333506,128.947318 124.400372,127.987986 124.397955,126.803827 L124.397955,108.357464 C124.400372,107.173304 125.333506,106.213972 126.485327,106.211487 L142.722884,106.211487 L142.71849,106.211487 Z M142.722884,105.307918 L126.485327,105.307918 C124.847104,105.307918 123.519062,106.673246 123.519062,108.357464 L123.519062,126.803827 C123.519062,128.488044 124.847104,129.853372 126.485327,129.853372 L142.722884,129.853372 C144.361107,129.853372 145.68915,128.488044 145.68915,126.803827 L145.68915,108.357464 C145.68915,106.673246 144.361107,105.307918 142.722884,105.307918 Z" id="形狀" fill="#D9D9D9"></path>
                <path d="M134.178027,112.095532 C134.178027,111.84518 134.401885,111.642229 134.678027,111.642229 C134.954169,111.642229 135.178027,111.84518 135.178027,112.095532 L135.178027,117.290388 C135.178027,117.540741 134.954169,117.743691 134.678027,117.743691 C134.401885,117.743691 134.178027,117.540741 134.178027,117.290388 L134.178027,112.095532 Z M136.440377,114.771064 C136.233522,114.653225 136.155291,114.378635 136.265645,114.15775 C136.375998,113.936864 136.633147,113.853327 136.840003,113.971166 C138.77057,115.070941 139.74787,117.436634 139.206919,119.700624 C138.665968,121.964613 136.746724,123.54115 134.558714,123.518828 C132.370704,123.496505 130.480019,121.881099 129.979677,119.606486 C129.479334,117.331873 130.498785,114.986551 132.448677,113.926365 C132.657604,113.812768 132.913211,113.901536 133.019592,114.124633 C133.125974,114.34773 133.042844,114.620674 132.833918,114.73427 C131.232531,115.604968 130.395288,117.531109 130.806204,119.399178 C131.21712,121.267247 132.769881,122.59393 134.566825,122.612262 C136.36377,122.630595 137.939986,121.335834 138.384252,119.47649 C138.828518,117.617146 138.025892,115.674275 136.440377,114.771064 Z" id="合併形狀" fill="#FFA200"></path>
            </g>
        </g>
    </g>
</svg>