<?xml version="1.0" encoding="UTF-8"?>
<svg width="270px" height="178px" viewBox="0 0 270 178" version="1.1" xmlns="http://www.w3.org/2000/svg" xmlns:xlink="http://www.w3.org/1999/xlink">
    <!-- Generator: Sketch 55.2 (78181) - https://sketchapp.com -->
    <title>群組 17</title>
    <desc>Created with Sketch.</desc>
    <g id="網頁" stroke="none" stroke-width="1" fill="none" fill-rule="evenodd">
        <g id="目前無資料" transform="translate(-52.000000, -241.000000)">
            <g id="群組-17" transform="translate(52.000000, 241.000000)">
                <path d="M250.243798,145.508445 C249.403687,146.246752 248.542781,146.965104 247.661081,147.663502 C247.513853,147.783227 247.361635,147.912929 247.211912,148.020183 C244.074042,150.453456 240.779709,152.678149 237.350175,154.679906 C233.414962,157.004573 229.307569,159.119721 225.145277,161.115143 C218.88879,164.140949 212.480479,166.842508 205.945831,169.209076 L205.651376,169.31633 C202.7767,170.340647 199.869583,171.285978 196.930027,172.152324 L196.877624,172.16729 C194.826423,172.765916 192.761081,173.318815 190.681598,173.825985 L190.397125,173.895824 C187.336127,174.634131 184.244352,175.261857 181.121802,175.779004 L180.403132,175.893741 C178.120692,176.252917 175.822448,176.545579 173.5084,176.771727 C160.502485,178.018866 147.339362,177.006189 134.413299,175.255206 C108.30914,171.715825 82.5518385,165.081046 59.0528551,154.679906 C50.0990932,150.735786 41.4337484,146.167483 33.1208773,141.008768 C31.9430584,140.27545 30.7727257,139.527166 29.6098791,138.763917 C29.4277165,138.641698 29.2430584,138.514489 29.0608958,138.397258 C17.597125,130.73733 7.24379781,121.40873 2.42771648,109.635737 C-2.94483436,96.4933861 0.493797806,79.8365969 13.8016536,72.0569435 C18.3981416,69.3880659 23.7008218,67.9339018 29.0658865,66.734154 L29.6148699,66.6119344 C30.5231878,66.4123922 31.4315058,66.2203327 32.3373283,66.0282733 C35.5039642,65.3573125 38.6880677,64.6913403 41.8422266,63.9455511 C47.7038717,62.5662153 53.4632063,60.9199918 58.8307664,58.5030363 C59.2266998,58.326774 59.6209697,58.1446917 60.013576,57.9567894 C64.2132987,55.9613669 68.7823375,53.0580272 72.2409327,49.5710264 C75.2204152,46.5604327 77.3639457,43.1083518 77.7182895,39.4043488 C77.8204853,38.3520925 77.77344,37.2906813 77.5785483,36.2515813 C77.2092322,34.2811016 76.852393,32.3555189 76.5803967,30.4748332 C76.0813209,26.9429354 75.9216167,23.5656828 76.6028551,20.3081556 C77.2965704,16.9882715 78.8661638,13.7931012 81.8656093,10.6952078 C82.3197682,10.2262835 82.8071989,9.75985351 83.3279013,9.29591778 C85.7499282,7.17171091 88.4897623,5.43966079 91.4478643,4.16269344 C91.8155168,3.99640823 92.1848329,3.84093156 92.5558126,3.69626343 C100.790563,0.363907879 110.689731,-0.331995713 119.937606,0.126951458 C128.578028,0.57037302 137.163607,1.76296073 145.597587,3.69127487 C146.266349,3.84093156 146.93511,3.99807108 147.59389,4.15770488 C154.771252,5.89463639 161.833515,8.07635789 168.739731,10.6902192 C189.04463,18.3227103 208.04694,29.3199824 225.619399,41.2575974 L226.457846,41.8287871 C226.868752,42.1098091 227.279657,42.392494 227.690563,42.6768417 C228.532338,43.2555142 229.369121,43.8375124 230.200914,44.4228364 C230.819768,44.8535151 231.436959,45.2875194 232.052485,45.7248495 L233.377532,46.6651924 L234.203502,47.2588306 C238.695184,50.5013921 243.1145,53.8611847 247.209417,57.4654166 L247.658585,57.8645011 C252.649343,62.3043161 257.168474,67.1082958 260.786774,72.4709937 C276.13585,95.2287871 271.584278,126.758957 250.243798,145.508445 Z" id="路徑" fill="#E9E9E9"></path>
                <path d="M247.661081,3.69127487 L247.661081,147.663502 C247.513853,147.783227 247.361635,147.912929 247.211912,148.020183 C244.074042,150.453456 240.779709,152.678149 237.350175,154.679906 L59.0728181,154.679906 C50.1122295,150.736627 41.4401881,146.168311 33.1208773,141.008768 C31.9430584,140.27545 30.7727257,139.527166 29.6098791,138.763917 C29.4277165,138.641698 29.2430584,138.514489 29.0608958,138.397258 L29.0608958,3.70624054 L247.661081,3.69127487 Z" id="路徑" fill="#000000" fill-rule="nonzero" opacity="0.03"></path>
                <path d="M247.224389,4.15770488 L247.224389,148.020183 C244.086519,150.453456 240.792186,152.678149 237.362652,154.679906 L59.0728181,154.679906 C50.1122295,150.736627 41.4401881,146.168311 33.1208773,141.008768 C31.9430584,140.27545 30.7727257,139.527166 29.6098791,138.763917 L29.6098791,4.15770488 L247.224389,4.15770488 Z" id="路徑" fill="#FEFEFE" fill-rule="nonzero"></path>
                <g id="群組" opacity="0.7" transform="translate(189.658493, 58.111435)" fill="#FF6584" fill-rule="nonzero">
                    <path d="M5.26524954,0.229473586 C2.37111411,0.229473586 0.0249537893,2.57459891 0.0249537893,5.46745761 C0.0249537893,8.36031631 2.37111411,10.7054416 5.26524954,10.7054416 C8.15938496,10.7054416 10.5055453,8.36031631 10.5055453,5.46745761 C10.5055453,2.57459891 8.15938496,0.229473586 5.26524954,0.229473586 L5.26524954,0.229473586 Z M5.26524954,9.70773039 C2.922378,9.70773039 1.02309459,7.8092956 1.02309459,5.46745761 C1.02202509,4.99339393 1.10220519,4.5226491 1.26016636,4.07565043 C1.26016636,4.07565043 1.26016636,4.07565043 1.26016636,4.07565043 C1.96648053,2.0316676 4.09845267,0.846416965 6.20828503,1.3247886 C8.31811738,1.80316023 9.72980565,3.79188069 9.48468856,5.94043277 C9.23957147,8.08898485 7.41618616,9.70895821 5.25277264,9.70024756 L5.26524954,9.70773039 Z" id="形狀"></path>
                    <path d="M6.87227357,7.74223925 L7.5310536,7.08125555 C7.58621765,7.02647317 7.61723872,6.95195753 7.61723872,6.87423046 C7.61723872,6.7965034 7.58621765,6.72198776 7.5310536,6.66720538 L6.34075786,5.47494045 L7.5310536,4.28516979 C7.58621765,4.23038741 7.61723872,4.15587177 7.61723872,4.07814471 C7.61723872,4.00041764 7.58621765,3.925902 7.5310536,3.87111962 L6.87227357,3.21013592 C6.81704019,3.15484557 6.74207879,3.12377692 6.66390943,3.12377692 C6.58574007,3.12377692 6.51077867,3.15484557 6.45554529,3.21013592 L5.26524954,4.39990658 L4.07495379,3.21013592 C4.02014724,3.15499621 3.94559871,3.12398883 3.86783734,3.12398883 C3.79007597,3.12398883 3.71552744,3.15499621 3.66072089,3.21013592 L2.99944547,3.88359101 C2.94428142,3.93837339 2.91326035,4.01288903 2.91326035,4.0906161 C2.91326035,4.16834316 2.94428142,4.2428588 2.99944547,4.29764118 L4.18974122,5.48741184 L2.99944547,6.67967677 C2.94428142,6.73445915 2.91326035,6.80897479 2.91326035,6.88670185 C2.91326035,6.96442892 2.94428142,7.03894456 2.99944547,7.09372694 L3.66072089,7.75471064 C3.71552744,7.80985035 3.79007597,7.84085773 3.86783734,7.84085773 C3.94559871,7.84085773 4.02014724,7.80985035 4.07495379,7.75471064 L5.26524954,6.5624457 L6.45554529,7.75471064 C6.57501488,7.86376704 6.75954533,7.85824461 6.87227357,7.74223925 L6.87227357,7.74223925 Z" id="路徑"></path>
                </g>
                <path d="M184.450637,100.491714 L184.450637,100.491714 C184.18906,99.1162462 183.387463,97.9027038 182.224759,97.1219442 L182.224759,97.1219442 C181.052505,96.3370005 179.613912,96.0556999 178.232153,96.3412352 L178.074944,96.3786493 C177.792209,96.443913 177.515808,96.5340586 177.248973,96.6480314 C175.315718,97.4781558 174.063755,99.3804026 174.066466,101.483562 C174.069186,103.586721 175.326058,105.485731 177.26145,106.310865 L177.411173,106.370727 C179.0257,106.999147 180.846617,106.78926 182.275675,105.810024 C183.704733,104.830788 184.557179,103.2088 184.552963,101.476954 C184.550965,101.145997 184.5167,100.816022 184.450637,100.491714 L184.450637,100.491714 Z M183.48243,102.105512 C183.483597,102.110432 183.483597,102.115557 183.48243,102.120478 L183.48243,102.167869 C183.261747,103.470412 182.446311,104.595723 181.276961,105.211439 C180.107612,105.827155 178.717972,105.862918 177.518474,105.308165 C177.4682,105.286571 177.419061,105.262428 177.371247,105.235831 C177.09287,105.09398 176.831651,104.920748 176.592689,104.719515 C175.542092,103.83516 174.98487,102.4971 175.097375,101.128809 C175.20988,99.7605185 175.978187,98.5313518 177.15914,97.8303192 C177.423233,97.6723763 177.704547,97.5451714 177.997587,97.4511889 L178.154796,97.4037976 C179.430588,97.0470385 180.799871,97.3065077 181.856512,98.1052456 C182.913152,98.9039834 183.535818,100.150273 183.539824,101.47446 C183.537156,101.685983 183.517966,101.896975 183.48243,102.105512 L183.48243,102.105512 Z" id="形狀" fill="#FDC30D" fill-rule="nonzero" opacity="0.1"></path>
                <path d="M180.904704,103.741758 L181.565979,103.080775 C181.621143,103.025992 181.652164,102.951477 181.652164,102.87375 C181.652164,102.796022 181.621143,102.721507 181.565979,102.666724 L180.375683,101.476954 L181.565979,100.287183 C181.621294,100.231974 181.652376,100.157046 181.652376,100.078911 C181.652376,100.000776 181.621294,99.9258477 181.565979,99.8706387 L180.904704,99.2121493 C180.849897,99.1570096 180.775348,99.1260022 180.697587,99.1260022 C180.619826,99.1260022 180.545277,99.1570096 180.490471,99.2121493 L179.300175,100.406908 L178.102393,99.2121493 C178.047586,99.1570096 177.973038,99.1260022 177.895277,99.1260022 C177.817515,99.1260022 177.742967,99.1570096 177.68816,99.2121493 L177.026885,99.8706387 C176.97157,99.9258477 176.940488,100.000776 176.940488,100.078911 C176.940488,100.157046 176.97157,100.231974 177.026885,100.287183 L178.219676,101.476954 L177.026885,102.666724 C176.971721,102.721507 176.9407,102.796022 176.9407,102.87375 C176.9407,102.951477 176.971721,103.025992 177.026885,103.080775 L177.68816,103.741758 C177.742967,103.796898 177.817515,103.827905 177.895277,103.827905 C177.973038,103.827905 178.047586,103.796898 178.102393,103.741758 L179.295184,102.551988 L180.48548,103.741758 C180.540469,103.798449 180.616095,103.830447 180.695092,103.830447 C180.774089,103.830447 180.849714,103.798449 180.904704,103.741758 Z" id="路徑" fill="#FDC30D" fill-rule="nonzero" opacity="0.1"></path>
                <path d="M168.951838,23.9123875 L168.475221,23.4334861 C168.428187,23.38471 168.363328,23.3571547 168.295554,23.3571547 C168.227779,23.3571547 168.16292,23.38471 168.115887,23.4334861 L165.121432,26.3991828 L163.856275,25.1246067 C163.809327,25.0766136 163.745008,25.0495599 163.677855,25.0495599 C163.610702,25.0495599 163.546384,25.0766136 163.499436,25.1246067 L163.017827,25.6010138 C162.96903,25.6480267 162.941462,25.7128572 162.941462,25.7806018 C162.941462,25.8483463 162.96903,25.9131769 163.017827,25.9601898 L164.939269,27.8957496 C164.986303,27.9445257 165.051162,27.972081 165.118936,27.972081 C165.186711,27.972081 165.25157,27.9445257 165.298604,27.8957496 L168.949343,24.2740578 C168.99926,24.2273101 169.027791,24.1621297 169.028268,24.0937581 C169.028734,24.0253865 169.001106,23.959819 168.951838,23.9123875 Z M168.951838,23.9123875 L168.475221,23.4334861 C168.428187,23.38471 168.363328,23.3571547 168.295554,23.3571547 C168.227779,23.3571547 168.16292,23.38471 168.115887,23.4334861 L165.121432,26.3991828 L163.856275,25.1246067 C163.809327,25.0766136 163.745008,25.0495599 163.677855,25.0495599 C163.610702,25.0495599 163.546384,25.0766136 163.499436,25.1246067 L163.017827,25.6010138 C162.96903,25.6480267 162.941462,25.7128572 162.941462,25.7806018 C162.941462,25.8483463 162.96903,25.9131769 163.017827,25.9601898 L164.939269,27.8957496 C164.986303,27.9445257 165.051162,27.972081 165.118936,27.972081 C165.186711,27.972081 165.25157,27.9445257 165.298604,27.8957496 L168.949343,24.2740578 C168.99926,24.2273101 169.027791,24.1621297 169.028268,24.0937581 C169.028734,24.0253865 169.001106,23.959819 168.951838,23.9123875 Z M168.951838,23.9123875 L168.475221,23.4334861 C168.428187,23.38471 168.363328,23.3571547 168.295554,23.3571547 C168.227779,23.3571547 168.16292,23.38471 168.115887,23.4334861 L165.121432,26.3991828 L163.856275,25.1246067 C163.809327,25.0766136 163.745008,25.0495599 163.677855,25.0495599 C163.610702,25.0495599 163.546384,25.0766136 163.499436,25.1246067 L163.017827,25.6010138 C162.96903,25.6480267 162.941462,25.7128572 162.941462,25.7806018 C162.941462,25.8483463 162.96903,25.9131769 163.017827,25.9601898 L164.939269,27.8957496 C164.986303,27.9445257 165.051162,27.972081 165.118936,27.972081 C165.186711,27.972081 165.25157,27.9445257 165.298604,27.8957496 L168.949343,24.2740578 C168.99926,24.2273101 169.027791,24.1621297 169.028268,24.0937581 C169.028734,24.0253865 169.001106,23.959819 168.951838,23.9123875 Z M168.951838,23.9123875 L168.475221,23.4334861 C168.428187,23.38471 168.363328,23.3571547 168.295554,23.3571547 C168.227779,23.3571547 168.16292,23.38471 168.115887,23.4334861 L165.121432,26.3991828 L163.856275,25.1246067 C163.809327,25.0766136 163.745008,25.0495599 163.677855,25.0495599 C163.610702,25.0495599 163.546384,25.0766136 163.499436,25.1246067 L163.017827,25.6010138 C162.96903,25.6480267 162.941462,25.7128572 162.941462,25.7806018 C162.941462,25.8483463 162.96903,25.9131769 163.017827,25.9601898 L164.939269,27.8957496 C164.986303,27.9445257 165.051162,27.972081 165.118936,27.972081 C165.186711,27.972081 165.25157,27.9445257 165.298604,27.8957496 L168.949343,24.2740578 C168.99926,24.2273101 169.027791,24.1621297 169.028268,24.0937581 C169.028734,24.0253865 169.001106,23.959819 168.951838,23.9123875 Z M165.984833,20.1435333 C163.090697,20.1435333 160.744537,22.4886586 160.744537,25.3815173 C160.744537,28.274376 163.090697,30.6195013 165.984833,30.6195013 C168.878968,30.6195013 171.225129,28.274376 171.225129,25.3815173 C171.225129,22.4886586 168.878968,20.1435333 165.984833,20.1435333 L165.984833,20.1435333 Z M165.984833,29.6217901 C163.641961,29.6217901 161.742689,27.7233553 161.742689,25.3815173 C161.742689,23.0396793 163.641961,21.1412445 165.984833,21.1412445 C168.327704,21.1412445 170.226984,23.0396793 170.226984,25.3815173 C170.228974,26.5062602 169.782516,27.5854383 168.986382,28.3802846 C168.190248,29.175131 167.110069,29.6201211 165.984833,29.6168015 L165.984833,29.6217901 Z M168.951838,23.917376 L168.475221,23.4384746 C168.428187,23.3896986 168.363328,23.3621433 168.295554,23.3621433 C168.227779,23.3621433 168.16292,23.3896986 168.115887,23.4384746 L165.121432,26.4041713 L163.856275,25.1295952 C163.809327,25.0816021 163.745008,25.0545485 163.677855,25.0545485 C163.610702,25.0545485 163.546384,25.0816021 163.499436,25.1295952 L163.017827,25.6060023 C162.96903,25.6530153 162.941462,25.7178458 162.941462,25.7855903 C162.941462,25.8533349 162.96903,25.9181654 163.017827,25.9651784 L164.939269,27.9007382 C164.986303,27.9495143 165.051162,27.9770696 165.118936,27.9770696 C165.186711,27.9770696 165.25157,27.9495143 165.298604,27.9007382 L168.949343,24.2790464 C169.000874,24.2321749 169.030454,24.1659037 169.030934,24.0962632 C169.031402,24.0266227 169.002727,23.9599554 168.951838,23.9123875 L168.951838,23.917376 Z M168.951838,23.917376 L168.475221,23.4384746 C168.428187,23.3896986 168.363328,23.3621433 168.295554,23.3621433 C168.227779,23.3621433 168.16292,23.3896986 168.115887,23.4384746 L165.121432,26.4041713 L163.856275,25.1295952 C163.809327,25.0816021 163.745008,25.0545485 163.677855,25.0545485 C163.610702,25.0545485 163.546384,25.0816021 163.499436,25.1295952 L163.017827,25.6060023 C162.96903,25.6530153 162.941462,25.7178458 162.941462,25.7855903 C162.941462,25.8533349 162.96903,25.9181654 163.017827,25.9651784 L164.939269,27.9007382 C164.986303,27.9495143 165.051162,27.9770696 165.118936,27.9770696 C165.186711,27.9770696 165.25157,27.9495143 165.298604,27.9007382 L168.949343,24.2790464 C169.000874,24.2321749 169.030454,24.1659037 169.030934,24.0962632 C169.031402,24.0266227 169.002727,23.9599554 168.951838,23.9123875 L168.951838,23.917376 Z M168.951838,23.917376 L168.475221,23.4384746 C168.428187,23.3896986 168.363328,23.3621433 168.295554,23.3621433 C168.227779,23.3621433 168.16292,23.3896986 168.115887,23.4384746 L165.121432,26.4041713 L163.856275,25.1295952 C163.809327,25.0816021 163.745008,25.0545485 163.677855,25.0545485 C163.610702,25.0545485 163.546384,25.0816021 163.499436,25.1295952 L163.017827,25.6060023 C162.96903,25.6530153 162.941462,25.7178458 162.941462,25.7855903 C162.941462,25.8533349 162.96903,25.9181654 163.017827,25.9651784 L164.939269,27.9007382 C164.986303,27.9495143 165.051162,27.9770696 165.118936,27.9770696 C165.186711,27.9770696 165.25157,27.9495143 165.298604,27.9007382 L168.949343,24.2790464 C169.000874,24.2321749 169.030454,24.1659037 169.030934,24.0962632 C169.031402,24.0266227 169.002727,23.9599554 168.951838,23.9123875 L168.951838,23.917376 Z M168.951838,23.917376 L168.475221,23.4384746 C168.428187,23.3896986 168.363328,23.3621433 168.295554,23.3621433 C168.227779,23.3621433 168.16292,23.3896986 168.115887,23.4384746 L165.121432,26.4041713 L163.856275,25.1295952 C163.809327,25.0816021 163.745008,25.0545485 163.677855,25.0545485 C163.610702,25.0545485 163.546384,25.0816021 163.499436,25.1295952 L163.017827,25.6060023 C162.96903,25.6530153 162.941462,25.7178458 162.941462,25.7855903 C162.941462,25.8533349 162.96903,25.9181654 163.017827,25.9651784 L164.939269,27.9007382 C164.986303,27.9495143 165.051162,27.9770696 165.118936,27.9770696 C165.186711,27.9770696 165.25157,27.9495143 165.298604,27.9007382 L168.949343,24.2790464 C169.000874,24.2321749 169.030454,24.1659037 169.030934,24.0962632 C169.031402,24.0266227 169.002727,23.9599554 168.951838,23.9123875 L168.951838,23.917376 Z M168.951838,23.917376 L168.475221,23.4384746 C168.428187,23.3896986 168.363328,23.3621433 168.295554,23.3621433 C168.227779,23.3621433 168.16292,23.3896986 168.115887,23.4384746 L165.121432,26.4041713 L163.856275,25.1295952 C163.809327,25.0816021 163.745008,25.0545485 163.677855,25.0545485 C163.610702,25.0545485 163.546384,25.0816021 163.499436,25.1295952 L163.017827,25.6060023 C162.96903,25.6530153 162.941462,25.7178458 162.941462,25.7855903 C162.941462,25.8533349 162.96903,25.9181654 163.017827,25.9651784 L164.939269,27.9007382 C164.986303,27.9495143 165.051162,27.9770696 165.118936,27.9770696 C165.186711,27.9770696 165.25157,27.9495143 165.298604,27.9007382 L168.949343,24.2790464 C169.000874,24.2321749 169.030454,24.1659037 169.030934,24.0962632 C169.031402,24.0266227 169.002727,23.9599554 168.951838,23.9123875 L168.951838,23.917376 Z" id="形狀" fill="#3ACC6C" fill-rule="nonzero" opacity="0.7"></path>
                <path d="M178.237143,62.1122567 L177.760526,61.630861 C177.713492,61.582085 177.648633,61.5545296 177.580859,61.5545296 C177.513084,61.5545296 177.448225,61.582085 177.401192,61.630861 L174.406737,64.5965577 L173.14158,63.3219816 C173.094546,63.2732055 173.029687,63.2456502 172.961912,63.2456502 C172.894138,63.2456502 172.829279,63.2732055 172.782245,63.3219816 L172.300637,63.7983887 C172.251839,63.8454017 172.224272,63.9102322 172.224272,63.9779767 C172.224272,64.0457213 172.251839,64.1105518 172.300637,64.1575648 L174.219583,66.0931246 C174.266617,66.1419006 174.331476,66.1694559 174.399251,66.1694559 C174.467025,66.1694559 174.531884,66.1419006 174.578918,66.0931246 L178.232153,62.4714328 C178.28161,62.4251007 178.310082,62.3606517 178.311048,62.292905 C178.311965,62.2251584 178.285294,62.1599438 178.237143,62.1122567 L178.237143,62.1122567 Z M178.237143,62.1122567 L177.760526,61.630861 C177.713492,61.582085 177.648633,61.5545296 177.580859,61.5545296 C177.513084,61.5545296 177.448225,61.582085 177.401192,61.630861 L174.406737,64.5965577 L173.14158,63.3219816 C173.094546,63.2732055 173.029687,63.2456502 172.961912,63.2456502 C172.894138,63.2456502 172.829279,63.2732055 172.782245,63.3219816 L172.300637,63.7983887 C172.251839,63.8454017 172.224272,63.9102322 172.224272,63.9779767 C172.224272,64.0457213 172.251839,64.1105518 172.300637,64.1575648 L174.219583,66.0931246 C174.266617,66.1419006 174.331476,66.1694559 174.399251,66.1694559 C174.467025,66.1694559 174.531884,66.1419006 174.578918,66.0931246 L178.232153,62.4714328 C178.28161,62.4251007 178.310082,62.3606517 178.311048,62.292905 C178.311965,62.2251584 178.285294,62.1599438 178.237143,62.1122567 L178.237143,62.1122567 Z M178.237143,62.1122567 L177.760526,61.630861 C177.713492,61.582085 177.648633,61.5545296 177.580859,61.5545296 C177.513084,61.5545296 177.448225,61.582085 177.401192,61.630861 L174.406737,64.5965577 L173.14158,63.3219816 C173.094546,63.2732055 173.029687,63.2456502 172.961912,63.2456502 C172.894138,63.2456502 172.829279,63.2732055 172.782245,63.3219816 L172.300637,63.7983887 C172.251839,63.8454017 172.224272,63.9102322 172.224272,63.9779767 C172.224272,64.0457213 172.251839,64.1105518 172.300637,64.1575648 L174.219583,66.0931246 C174.266617,66.1419006 174.331476,66.1694559 174.399251,66.1694559 C174.467025,66.1694559 174.531884,66.1419006 174.578918,66.0931246 L178.232153,62.4714328 C178.28161,62.4251007 178.310082,62.3606517 178.311048,62.292905 C178.311965,62.2251584 178.285294,62.1599438 178.237143,62.1122567 L178.237143,62.1122567 Z M178.237143,62.1122567 L177.760526,61.630861 C177.713492,61.582085 177.648633,61.5545296 177.580859,61.5545296 C177.513084,61.5545296 177.448225,61.582085 177.401192,61.630861 L174.406737,64.5965577 L173.14158,63.3219816 C173.094546,63.2732055 173.029687,63.2456502 172.961912,63.2456502 C172.894138,63.2456502 172.829279,63.2732055 172.782245,63.3219816 L172.300637,63.7983887 C172.251839,63.8454017 172.224272,63.9102322 172.224272,63.9779767 C172.224272,64.0457213 172.251839,64.1105518 172.300637,64.1575648 L174.219583,66.0931246 C174.266617,66.1419006 174.331476,66.1694559 174.399251,66.1694559 C174.467025,66.1694559 174.531884,66.1419006 174.578918,66.0931246 L178.232153,62.4714328 C178.28161,62.4251007 178.310082,62.3606517 178.311048,62.292905 C178.311965,62.2251584 178.285294,62.1599438 178.237143,62.1122567 L178.237143,62.1122567 Z M175.270138,58.3409082 C172.376002,58.3409082 170.029842,60.6860335 170.029842,63.5788922 C170.029842,66.4717509 172.376002,68.8168763 175.270138,68.8168763 C178.164273,68.8168763 180.510434,66.4717509 180.510434,63.5788922 C180.510434,60.6860335 178.164273,58.3409082 175.270138,58.3409082 Z M175.270138,67.819165 C173.554351,67.819165 172.007511,66.7860557 171.350908,65.2015744 C170.694304,63.617093 171.057244,61.7932761 172.270489,60.5805666 C173.483734,59.3678571 175.308356,59.0050773 176.893536,59.661391 C178.478717,60.3177047 179.512294,61.863862 179.512294,63.5788922 C179.514943,64.7040669 179.068779,65.7838874 178.272573,66.5792742 C177.476367,67.374661 176.395807,67.819993 175.270138,67.8166707 L175.270138,67.819165 Z M178.237143,62.114751 L177.760526,61.6333553 C177.713492,61.5845792 177.648633,61.5570239 177.580859,61.5570239 C177.513084,61.5570239 177.448225,61.5845792 177.401192,61.6333553 L174.406737,64.599052 L173.14158,63.3244759 C173.094546,63.2756998 173.029687,63.2481445 172.961912,63.2481445 C172.894138,63.2481445 172.829279,63.2756998 172.782245,63.3244759 L172.300637,63.800883 C172.251839,63.8478959 172.224272,63.9127265 172.224272,63.980471 C172.224272,64.0482156 172.251839,64.1130461 172.300637,64.160059 L174.219583,66.0956188 C174.266617,66.1443949 174.331476,66.1719502 174.399251,66.1719502 C174.467025,66.1719502 174.531884,66.1443949 174.578918,66.0956188 L178.232153,62.473927 C178.2824,62.4275238 178.311384,62.362536 178.312352,62.2941628 C178.313271,62.2257896 178.286091,62.1600275 178.237143,62.1122567 L178.237143,62.114751 Z M178.237143,62.114751 L177.760526,61.6333553 C177.713492,61.5845792 177.648633,61.5570239 177.580859,61.5570239 C177.513084,61.5570239 177.448225,61.5845792 177.401192,61.6333553 L174.406737,64.599052 L173.14158,63.3244759 C173.094546,63.2756998 173.029687,63.2481445 172.961912,63.2481445 C172.894138,63.2481445 172.829279,63.2756998 172.782245,63.3244759 L172.300637,63.800883 C172.251839,63.8478959 172.224272,63.9127265 172.224272,63.980471 C172.224272,64.0482156 172.251839,64.1130461 172.300637,64.160059 L174.219583,66.0956188 C174.266617,66.1443949 174.331476,66.1719502 174.399251,66.1719502 C174.467025,66.1719502 174.531884,66.1443949 174.578918,66.0956188 L178.232153,62.473927 C178.2824,62.4275238 178.311384,62.362536 178.312352,62.2941628 C178.313271,62.2257896 178.286091,62.1600275 178.237143,62.1122567 L178.237143,62.114751 Z M178.237143,62.114751 L177.760526,61.6333553 C177.713492,61.5845792 177.648633,61.5570239 177.580859,61.5570239 C177.513084,61.5570239 177.448225,61.5845792 177.401192,61.6333553 L174.406737,64.599052 L173.14158,63.3244759 C173.094546,63.2756998 173.029687,63.2481445 172.961912,63.2481445 C172.894138,63.2481445 172.829279,63.2756998 172.782245,63.3244759 L172.300637,63.800883 C172.251839,63.8478959 172.224272,63.9127265 172.224272,63.980471 C172.224272,64.0482156 172.251839,64.1130461 172.300637,64.160059 L174.219583,66.0956188 C174.266617,66.1443949 174.331476,66.1719502 174.399251,66.1719502 C174.467025,66.1719502 174.531884,66.1443949 174.578918,66.0956188 L178.232153,62.473927 C178.2824,62.4275238 178.311384,62.362536 178.312352,62.2941628 C178.313271,62.2257896 178.286091,62.1600275 178.237143,62.1122567 L178.237143,62.114751 Z M178.237143,62.114751 L177.760526,61.6333553 C177.713492,61.5845792 177.648633,61.5570239 177.580859,61.5570239 C177.513084,61.5570239 177.448225,61.5845792 177.401192,61.6333553 L174.406737,64.599052 L173.14158,63.3244759 C173.094546,63.2756998 173.029687,63.2481445 172.961912,63.2481445 C172.894138,63.2481445 172.829279,63.2756998 172.782245,63.3244759 L172.300637,63.800883 C172.251839,63.8478959 172.224272,63.9127265 172.224272,63.980471 C172.224272,64.0482156 172.251839,64.1130461 172.300637,64.160059 L174.219583,66.0956188 C174.266617,66.1443949 174.331476,66.1719502 174.399251,66.1719502 C174.467025,66.1719502 174.531884,66.1443949 174.578918,66.0956188 L178.232153,62.473927 C178.2824,62.4275238 178.311384,62.362536 178.312352,62.2941628 C178.313271,62.2257896 178.286091,62.1600275 178.237143,62.1122567 L178.237143,62.114751 Z M178.237143,62.114751 L177.760526,61.6333553 C177.713492,61.5845792 177.648633,61.5570239 177.580859,61.5570239 C177.513084,61.5570239 177.448225,61.5845792 177.401192,61.6333553 L174.406737,64.599052 L173.14158,63.3244759 C173.094546,63.2756998 173.029687,63.2481445 172.961912,63.2481445 C172.894138,63.2481445 172.829279,63.2756998 172.782245,63.3244759 L172.300637,63.800883 C172.251839,63.8478959 172.224272,63.9127265 172.224272,63.980471 C172.224272,64.0482156 172.251839,64.1130461 172.300637,64.160059 L174.219583,66.0956188 C174.266617,66.1443949 174.331476,66.1719502 174.399251,66.1719502 C174.467025,66.1719502 174.531884,66.1443949 174.578918,66.0956188 L178.232153,62.473927 C178.2824,62.4275238 178.311384,62.362536 178.312352,62.2941628 C178.313271,62.2257896 178.286091,62.1600275 178.237143,62.1122567 L178.237143,62.114751 Z" id="形狀" fill="#FDC30D" fill-rule="nonzero" opacity="0.1"></path>
                <path d="M162.548696,100.309632 L162.072079,99.828236 C162.025045,99.7794599 161.960186,99.7519046 161.892411,99.7519046 C161.824637,99.7519046 161.759778,99.7794599 161.712744,99.828236 L158.718289,102.793933 L157.453132,101.519357 C157.406099,101.47058 157.34124,101.443025 157.273465,101.443025 C157.205691,101.443025 157.140832,101.47058 157.093798,101.519357 L156.61219,101.995764 C156.563392,102.042777 156.535825,102.107607 156.535825,102.175352 C156.535825,102.243096 156.563392,102.307927 156.61219,102.35494 L158.531136,104.290499 C158.57817,104.339276 158.643029,104.366831 158.710803,104.366831 C158.778578,104.366831 158.843437,104.339276 158.890471,104.290499 L162.543705,100.668808 C162.593162,100.622476 162.621635,100.558027 162.622601,100.49028 C162.623518,100.422533 162.596847,100.357319 162.548696,100.309632 L162.548696,100.309632 Z M162.548696,100.309632 L162.072079,99.828236 C162.025045,99.7794599 161.960186,99.7519046 161.892411,99.7519046 C161.824637,99.7519046 161.759778,99.7794599 161.712744,99.828236 L158.718289,102.793933 L157.453132,101.519357 C157.406099,101.47058 157.34124,101.443025 157.273465,101.443025 C157.205691,101.443025 157.140832,101.47058 157.093798,101.519357 L156.61219,101.995764 C156.563392,102.042777 156.535825,102.107607 156.535825,102.175352 C156.535825,102.243096 156.563392,102.307927 156.61219,102.35494 L158.531136,104.290499 C158.57817,104.339276 158.643029,104.366831 158.710803,104.366831 C158.778578,104.366831 158.843437,104.339276 158.890471,104.290499 L162.543705,100.668808 C162.593162,100.622476 162.621635,100.558027 162.622601,100.49028 C162.623518,100.422533 162.596847,100.357319 162.548696,100.309632 L162.548696,100.309632 Z M162.548696,100.309632 L162.072079,99.828236 C162.025045,99.7794599 161.960186,99.7519046 161.892411,99.7519046 C161.824637,99.7519046 161.759778,99.7794599 161.712744,99.828236 L158.718289,102.793933 L157.453132,101.519357 C157.406099,101.47058 157.34124,101.443025 157.273465,101.443025 C157.205691,101.443025 157.140832,101.47058 157.093798,101.519357 L156.61219,101.995764 C156.563392,102.042777 156.535825,102.107607 156.535825,102.175352 C156.535825,102.243096 156.563392,102.307927 156.61219,102.35494 L158.531136,104.290499 C158.57817,104.339276 158.643029,104.366831 158.710803,104.366831 C158.778578,104.366831 158.843437,104.339276 158.890471,104.290499 L162.543705,100.668808 C162.593162,100.622476 162.621635,100.558027 162.622601,100.49028 C162.623518,100.422533 162.596847,100.357319 162.548696,100.309632 L162.548696,100.309632 Z M162.548696,100.309632 L162.072079,99.828236 C162.025045,99.7794599 161.960186,99.7519046 161.892411,99.7519046 C161.824637,99.7519046 161.759778,99.7794599 161.712744,99.828236 L158.718289,102.793933 L157.453132,101.519357 C157.406099,101.47058 157.34124,101.443025 157.273465,101.443025 C157.205691,101.443025 157.140832,101.47058 157.093798,101.519357 L156.61219,101.995764 C156.563392,102.042777 156.535825,102.107607 156.535825,102.175352 C156.535825,102.243096 156.563392,102.307927 156.61219,102.35494 L158.531136,104.290499 C158.57817,104.339276 158.643029,104.366831 158.710803,104.366831 C158.778578,104.366831 158.843437,104.339276 158.890471,104.290499 L162.543705,100.668808 C162.593162,100.622476 162.621635,100.558027 162.622601,100.49028 C162.623518,100.422533 162.596847,100.357319 162.548696,100.309632 L162.548696,100.309632 Z M159.581691,96.5382831 C156.687555,96.5382831 154.341395,98.8834085 154.341395,101.776267 C154.341395,104.669126 156.687555,107.014251 159.581691,107.014251 C162.475826,107.014251 164.821986,104.669126 164.821986,101.776267 C164.821986,98.8834085 162.475826,96.5382831 159.581691,96.5382831 Z M159.581691,106.01654 C157.238819,106.01654 155.339546,104.118105 155.339546,101.776267 C155.339546,99.4344292 157.238819,97.5359944 159.581691,97.5359944 C161.924562,97.5359944 163.823853,99.4344292 163.823853,101.776267 C163.827165,102.901646 163.381215,103.981855 162.584864,104.777387 C161.788512,105.572919 160.707564,106.018037 159.581691,106.014046 L159.581691,106.01654 Z M162.548696,100.312126 L162.072079,99.8307302 C162.025045,99.7819542 161.960186,99.7543989 161.892411,99.7543989 C161.824637,99.7543989 161.759778,99.7819542 161.712744,99.8307302 L158.718289,102.796427 L157.453132,101.521851 C157.406099,101.473075 157.34124,101.445519 157.273465,101.445519 C157.205691,101.445519 157.140832,101.473075 157.093798,101.521851 L156.61219,101.998258 C156.563392,102.045271 156.535825,102.110101 156.535825,102.177846 C156.535825,102.24559 156.563392,102.310421 156.61219,102.357434 L158.531136,104.292994 C158.57817,104.34177 158.643029,104.369325 158.710803,104.369325 C158.778578,104.369325 158.843437,104.34177 158.890471,104.292994 L162.543705,100.671302 C162.593952,100.624899 162.622937,100.559911 162.623904,100.491538 C162.624824,100.423165 162.597644,100.357402 162.548696,100.309632 L162.548696,100.312126 Z M162.548696,100.312126 L162.072079,99.8307302 C162.025045,99.7819542 161.960186,99.7543989 161.892411,99.7543989 C161.824637,99.7543989 161.759778,99.7819542 161.712744,99.8307302 L158.718289,102.796427 L157.453132,101.521851 C157.406099,101.473075 157.34124,101.445519 157.273465,101.445519 C157.205691,101.445519 157.140832,101.473075 157.093798,101.521851 L156.61219,101.998258 C156.563392,102.045271 156.535825,102.110101 156.535825,102.177846 C156.535825,102.24559 156.563392,102.310421 156.61219,102.357434 L158.531136,104.292994 C158.57817,104.34177 158.643029,104.369325 158.710803,104.369325 C158.778578,104.369325 158.843437,104.34177 158.890471,104.292994 L162.543705,100.671302 C162.593952,100.624899 162.622937,100.559911 162.623904,100.491538 C162.624824,100.423165 162.597644,100.357402 162.548696,100.309632 L162.548696,100.312126 Z M162.548696,100.312126 L162.072079,99.8307302 C162.025045,99.7819542 161.960186,99.7543989 161.892411,99.7543989 C161.824637,99.7543989 161.759778,99.7819542 161.712744,99.8307302 L158.718289,102.796427 L157.453132,101.521851 C157.406099,101.473075 157.34124,101.445519 157.273465,101.445519 C157.205691,101.445519 157.140832,101.473075 157.093798,101.521851 L156.61219,101.998258 C156.563392,102.045271 156.535825,102.110101 156.535825,102.177846 C156.535825,102.24559 156.563392,102.310421 156.61219,102.357434 L158.531136,104.292994 C158.57817,104.34177 158.643029,104.369325 158.710803,104.369325 C158.778578,104.369325 158.843437,104.34177 158.890471,104.292994 L162.543705,100.671302 C162.593952,100.624899 162.622937,100.559911 162.623904,100.491538 C162.624824,100.423165 162.597644,100.357402 162.548696,100.309632 L162.548696,100.312126 Z M162.548696,100.312126 L162.072079,99.8307302 C162.025045,99.7819542 161.960186,99.7543989 161.892411,99.7543989 C161.824637,99.7543989 161.759778,99.7819542 161.712744,99.8307302 L158.718289,102.796427 L157.453132,101.521851 C157.406099,101.473075 157.34124,101.445519 157.273465,101.445519 C157.205691,101.445519 157.140832,101.473075 157.093798,101.521851 L156.61219,101.998258 C156.563392,102.045271 156.535825,102.110101 156.535825,102.177846 C156.535825,102.24559 156.563392,102.310421 156.61219,102.357434 L158.531136,104.292994 C158.57817,104.34177 158.643029,104.369325 158.710803,104.369325 C158.778578,104.369325 158.843437,104.34177 158.890471,104.292994 L162.543705,100.671302 C162.593952,100.624899 162.622937,100.559911 162.623904,100.491538 C162.624824,100.423165 162.597644,100.357402 162.548696,100.309632 L162.548696,100.312126 Z M162.548696,100.312126 L162.072079,99.8307302 C162.025045,99.7819542 161.960186,99.7543989 161.892411,99.7543989 C161.824637,99.7543989 161.759778,99.7819542 161.712744,99.8307302 L158.718289,102.796427 L157.453132,101.521851 C157.406099,101.473075 157.34124,101.445519 157.273465,101.445519 C157.205691,101.445519 157.140832,101.473075 157.093798,101.521851 L156.61219,101.998258 C156.563392,102.045271 156.535825,102.110101 156.535825,102.177846 C156.535825,102.24559 156.563392,102.310421 156.61219,102.357434 L158.531136,104.292994 C158.57817,104.34177 158.643029,104.369325 158.710803,104.369325 C158.778578,104.369325 158.843437,104.34177 158.890471,104.292994 L162.543705,100.671302 C162.593952,100.624899 162.622937,100.559911 162.623904,100.491538 C162.624824,100.423165 162.597644,100.357402 162.548696,100.309632 L162.548696,100.312126 Z" id="形狀" fill="#3ACC6C" fill-rule="nonzero" opacity="0.7"></path>
                <path d="M152.487328,138.507007 L152.010711,138.028105 C151.963677,137.979329 151.898818,137.951774 151.831044,137.951774 C151.763269,137.951774 151.69841,137.979329 151.651376,138.028105 L148.656922,140.993802 L147.391765,139.719226 C147.344731,139.67045 147.279872,139.642894 147.212097,139.642894 C147.144323,139.642894 147.079464,139.67045 147.03243,139.719226 L146.553317,140.198127 C146.505303,140.245055 146.478237,140.309345 146.478237,140.376468 C146.478237,140.443591 146.505303,140.507881 146.553317,140.554809 L148.474759,142.490369 C148.521793,142.539145 148.586652,142.5667 148.654426,142.5667 C148.722201,142.5667 148.78706,142.539145 148.834094,142.490369 L152.484833,138.868677 C152.53475,138.821929 152.563281,138.756749 152.563758,138.688377 C152.564224,138.620006 152.536596,138.554438 152.487328,138.507007 Z M152.487328,138.507007 L152.010711,138.028105 C151.963677,137.979329 151.898818,137.951774 151.831044,137.951774 C151.763269,137.951774 151.69841,137.979329 151.651376,138.028105 L148.656922,140.993802 L147.391765,139.719226 C147.344731,139.67045 147.279872,139.642894 147.212097,139.642894 C147.144323,139.642894 147.079464,139.67045 147.03243,139.719226 L146.553317,140.198127 C146.505303,140.245055 146.478237,140.309345 146.478237,140.376468 C146.478237,140.443591 146.505303,140.507881 146.553317,140.554809 L148.474759,142.490369 C148.521793,142.539145 148.586652,142.5667 148.654426,142.5667 C148.722201,142.5667 148.78706,142.539145 148.834094,142.490369 L152.484833,138.868677 C152.53475,138.821929 152.563281,138.756749 152.563758,138.688377 C152.564224,138.620006 152.536596,138.554438 152.487328,138.507007 Z M152.487328,138.507007 L152.010711,138.028105 C151.963677,137.979329 151.898818,137.951774 151.831044,137.951774 C151.763269,137.951774 151.69841,137.979329 151.651376,138.028105 L148.656922,140.993802 L147.391765,139.719226 C147.344731,139.67045 147.279872,139.642894 147.212097,139.642894 C147.144323,139.642894 147.079464,139.67045 147.03243,139.719226 L146.553317,140.198127 C146.505303,140.245055 146.478237,140.309345 146.478237,140.376468 C146.478237,140.443591 146.505303,140.507881 146.553317,140.554809 L148.474759,142.490369 C148.521793,142.539145 148.586652,142.5667 148.654426,142.5667 C148.722201,142.5667 148.78706,142.539145 148.834094,142.490369 L152.484833,138.868677 C152.53475,138.821929 152.563281,138.756749 152.563758,138.688377 C152.564224,138.620006 152.536596,138.554438 152.487328,138.507007 Z M152.487328,138.507007 L152.010711,138.028105 C151.963677,137.979329 151.898818,137.951774 151.831044,137.951774 C151.763269,137.951774 151.69841,137.979329 151.651376,138.028105 L148.656922,140.993802 L147.391765,139.719226 C147.344731,139.67045 147.279872,139.642894 147.212097,139.642894 C147.144323,139.642894 147.079464,139.67045 147.03243,139.719226 L146.553317,140.198127 C146.505303,140.245055 146.478237,140.309345 146.478237,140.376468 C146.478237,140.443591 146.505303,140.507881 146.553317,140.554809 L148.474759,142.490369 C148.521793,142.539145 148.586652,142.5667 148.654426,142.5667 C148.722201,142.5667 148.78706,142.539145 148.834094,142.490369 L152.484833,138.868677 C152.53475,138.821929 152.563281,138.756749 152.563758,138.688377 C152.564224,138.620006 152.536596,138.554438 152.487328,138.507007 Z M149.520323,134.738152 C147.400821,134.738152 145.490019,136.014346 144.678921,137.971647 C143.867823,139.928947 144.31616,142.181897 145.814874,143.67995 C147.313588,145.178003 149.567533,145.626143 151.525697,144.815403 C153.483861,144.004662 154.760619,142.094703 154.760619,139.976136 C154.760619,137.083278 152.414458,134.738152 149.520323,134.738152 Z M149.520323,144.216409 C147.177451,144.216409 145.278179,142.317974 145.278179,139.976136 C145.278179,137.634298 147.177451,135.735864 149.520323,135.735864 C151.863194,135.735864 153.762467,137.634298 153.762467,139.976136 C153.761089,142.317 151.86222,144.213915 149.520323,144.213915 L149.520323,144.216409 Z M152.487328,138.509501 L152.010711,138.030599 C151.963677,137.981823 151.898818,137.954268 151.831044,137.954268 C151.763269,137.954268 151.69841,137.981823 151.651376,138.030599 L148.656922,140.996296 L147.391765,139.72172 C147.344731,139.672944 147.279872,139.645389 147.212097,139.645389 C147.144323,139.645389 147.079464,139.672944 147.03243,139.72172 L146.553317,140.200621 C146.505303,140.247549 146.478237,140.311839 146.478237,140.378962 C146.478237,140.446085 146.505303,140.510376 146.553317,140.557303 L148.474759,142.492863 C148.521793,142.541639 148.586652,142.569194 148.654426,142.569194 C148.722201,142.569194 148.78706,142.541639 148.834094,142.492863 L152.484833,138.871171 C152.535552,138.824357 152.564602,138.758633 152.565081,138.68963 C152.565548,138.620626 152.537401,138.55451 152.487328,138.507007 L152.487328,138.509501 Z M152.487328,138.509501 L152.010711,138.030599 C151.963677,137.981823 151.898818,137.954268 151.831044,137.954268 C151.763269,137.954268 151.69841,137.981823 151.651376,138.030599 L148.656922,140.996296 L147.391765,139.72172 C147.344731,139.672944 147.279872,139.645389 147.212097,139.645389 C147.144323,139.645389 147.079464,139.672944 147.03243,139.72172 L146.553317,140.200621 C146.505303,140.247549 146.478237,140.311839 146.478237,140.378962 C146.478237,140.446085 146.505303,140.510376 146.553317,140.557303 L148.474759,142.492863 C148.521793,142.541639 148.586652,142.569194 148.654426,142.569194 C148.722201,142.569194 148.78706,142.541639 148.834094,142.492863 L152.484833,138.871171 C152.535552,138.824357 152.564602,138.758633 152.565081,138.68963 C152.565548,138.620626 152.537401,138.55451 152.487328,138.507007 L152.487328,138.509501 Z M152.487328,138.509501 L152.010711,138.030599 C151.963677,137.981823 151.898818,137.954268 151.831044,137.954268 C151.763269,137.954268 151.69841,137.981823 151.651376,138.030599 L148.656922,140.996296 L147.391765,139.72172 C147.344731,139.672944 147.279872,139.645389 147.212097,139.645389 C147.144323,139.645389 147.079464,139.672944 147.03243,139.72172 L146.553317,140.200621 C146.505303,140.247549 146.478237,140.311839 146.478237,140.378962 C146.478237,140.446085 146.505303,140.510376 146.553317,140.557303 L148.474759,142.492863 C148.521793,142.541639 148.586652,142.569194 148.654426,142.569194 C148.722201,142.569194 148.78706,142.541639 148.834094,142.492863 L152.484833,138.871171 C152.535552,138.824357 152.564602,138.758633 152.565081,138.68963 C152.565548,138.620626 152.537401,138.55451 152.487328,138.507007 L152.487328,138.509501 Z M152.487328,138.509501 L152.010711,138.030599 C151.963677,137.981823 151.898818,137.954268 151.831044,137.954268 C151.763269,137.954268 151.69841,137.981823 151.651376,138.030599 L148.656922,140.996296 L147.391765,139.72172 C147.344731,139.672944 147.279872,139.645389 147.212097,139.645389 C147.144323,139.645389 147.079464,139.672944 147.03243,139.72172 L146.553317,140.200621 C146.505303,140.247549 146.478237,140.311839 146.478237,140.378962 C146.478237,140.446085 146.505303,140.510376 146.553317,140.557303 L148.474759,142.492863 C148.521793,142.541639 148.586652,142.569194 148.654426,142.569194 C148.722201,142.569194 148.78706,142.541639 148.834094,142.492863 L152.484833,138.871171 C152.535552,138.824357 152.564602,138.758633 152.565081,138.68963 C152.565548,138.620626 152.537401,138.55451 152.487328,138.507007 L152.487328,138.509501 Z M152.487328,138.509501 L152.010711,138.030599 C151.963677,137.981823 151.898818,137.954268 151.831044,137.954268 C151.763269,137.954268 151.69841,137.981823 151.651376,138.030599 L148.656922,140.996296 L147.391765,139.72172 C147.344731,139.672944 147.279872,139.645389 147.212097,139.645389 C147.144323,139.645389 147.079464,139.672944 147.03243,139.72172 L146.553317,140.200621 C146.505303,140.247549 146.478237,140.311839 146.478237,140.378962 C146.478237,140.446085 146.505303,140.510376 146.553317,140.557303 L148.474759,142.492863 C148.521793,142.541639 148.586652,142.569194 148.654426,142.569194 C148.722201,142.569194 148.78706,142.541639 148.834094,142.492863 L152.484833,138.871171 C152.535552,138.824357 152.564602,138.758633 152.565081,138.68963 C152.565548,138.620626 152.537401,138.55451 152.487328,138.507007 L152.487328,138.509501 Z" id="形狀" fill="#FDC30D" fill-rule="nonzero" opacity="0.1"></path>
                <path d="M213.077624,43.011075 L212.601007,42.5396564 C212.553973,42.4908803 212.489114,42.463325 212.421339,42.463325 C212.353565,42.463325 212.288706,42.4908803 212.241672,42.5396564 L210.684556,44.0861088 L210.123095,44.6423328 C210.123095,44.6423328 210.123095,44.6423328 210.123095,44.6423328 L210.075683,44.6872298 L210.075683,44.6872298 L209.783724,44.9790604 L209.783724,44.9790604 L209.26219,45.495376 L207.997033,44.2207998 C207.949999,44.1720238 207.88514,44.1444685 207.817365,44.1444685 C207.749591,44.1444685 207.684732,44.1720238 207.637698,44.2207998 L207.15609,44.697207 C207.107292,44.7442199 207.079725,44.8090504 207.079725,44.876795 C207.079725,44.9445395 207.107292,45.00937 207.15609,45.056383 L208.967735,46.8846889 L209.075036,46.9919428 C209.115067,47.031673 209.166562,47.0578453 209.222264,47.0667712 C209.300431,47.077536 209.379086,47.0507125 209.434371,46.9944371 L210.94657,45.4978702 L211.445646,44.9990146 L213.082615,43.3752396 C213.132369,43.3273932 213.160068,43.2610805 213.159146,43.1920755 C213.158177,43.1230705 213.128671,43.0575411 213.077624,43.011075 L213.077624,43.011075 Z M213.077624,43.011075 L212.601007,42.5396564 C212.553973,42.4908803 212.489114,42.463325 212.421339,42.463325 C212.353565,42.463325 212.288706,42.4908803 212.241672,42.5396564 L210.684556,44.0861088 L210.123095,44.6423328 C210.123095,44.6423328 210.123095,44.6423328 210.123095,44.6423328 L210.075683,44.6872298 L210.075683,44.6872298 L209.783724,44.9790604 L209.783724,44.9790604 L209.26219,45.495376 L207.997033,44.2207998 C207.949999,44.1720238 207.88514,44.1444685 207.817365,44.1444685 C207.749591,44.1444685 207.684732,44.1720238 207.637698,44.2207998 L207.15609,44.697207 C207.107292,44.7442199 207.079725,44.8090504 207.079725,44.876795 C207.079725,44.9445395 207.107292,45.00937 207.15609,45.056383 L208.967735,46.8846889 L209.075036,46.9919428 C209.115067,47.031673 209.166562,47.0578453 209.222264,47.0667712 C209.300431,47.077536 209.379086,47.0507125 209.434371,46.9944371 L210.94657,45.4978702 L211.445646,44.9990146 L213.082615,43.3752396 C213.132369,43.3273932 213.160068,43.2610805 213.159146,43.1920755 C213.158177,43.1230705 213.128671,43.0575411 213.077624,43.011075 L213.077624,43.011075 Z M213.077624,43.011075 L212.601007,42.5396564 C212.553973,42.4908803 212.489114,42.463325 212.421339,42.463325 C212.353565,42.463325 212.288706,42.4908803 212.241672,42.5396564 L210.684556,44.0861088 L210.123095,44.6423328 C210.123095,44.6423328 210.123095,44.6423328 210.123095,44.6423328 L210.075683,44.6872298 L210.075683,44.6872298 L209.783724,44.9790604 L209.783724,44.9790604 L209.26219,45.495376 L207.997033,44.2207998 C207.949999,44.1720238 207.88514,44.1444685 207.817365,44.1444685 C207.749591,44.1444685 207.684732,44.1720238 207.637698,44.2207998 L207.15609,44.697207 C207.107292,44.7442199 207.079725,44.8090504 207.079725,44.876795 C207.079725,44.9445395 207.107292,45.00937 207.15609,45.056383 L208.967735,46.8846889 L209.075036,46.9919428 C209.115067,47.031673 209.166562,47.0578453 209.222264,47.0667712 C209.300431,47.077536 209.379086,47.0507125 209.434371,46.9944371 L210.94657,45.4978702 L211.445646,44.9990146 L213.082615,43.3752396 C213.132369,43.3273932 213.160068,43.2610805 213.159146,43.1920755 C213.158177,43.1230705 213.128671,43.0575411 213.077624,43.011075 L213.077624,43.011075 Z M213.077624,43.011075 L212.601007,42.5396564 C212.553973,42.4908803 212.489114,42.463325 212.421339,42.463325 C212.353565,42.463325 212.288706,42.4908803 212.241672,42.5396564 L210.684556,44.0861088 L210.123095,44.6423328 C210.123095,44.6423328 210.123095,44.6423328 210.123095,44.6423328 L210.075683,44.6872298 L210.075683,44.6872298 L209.783724,44.9790604 L209.783724,44.9790604 L209.26219,45.495376 L207.997033,44.2207998 C207.949999,44.1720238 207.88514,44.1444685 207.817365,44.1444685 C207.749591,44.1444685 207.684732,44.1720238 207.637698,44.2207998 L207.15609,44.697207 C207.107292,44.7442199 207.079725,44.8090504 207.079725,44.876795 C207.079725,44.9445395 207.107292,45.00937 207.15609,45.056383 L208.967735,46.8846889 L209.075036,46.9919428 C209.115067,47.031673 209.166562,47.0578453 209.222264,47.0667712 C209.300431,47.077536 209.379086,47.0507125 209.434371,46.9944371 L210.94657,45.4978702 L211.445646,44.9990146 L213.082615,43.3752396 C213.132369,43.3273932 213.160068,43.2610805 213.159146,43.1920755 C213.158177,43.1230705 213.128671,43.0575411 213.077624,43.011075 L213.077624,43.011075 Z M210.110619,39.2422207 C207.536994,39.2207702 205.328739,41.0706173 204.899888,43.6072306 C204.471037,46.1438439 205.948548,48.6162738 208.386312,49.4413239 C208.44121,49.4612781 208.496108,49.4812324 208.553502,49.496198 C209.698535,49.853951 210.931706,49.8081678 212.047033,49.3664956 C212.306793,49.2643502 212.557259,49.1400072 212.795646,48.9948481 C214.837568,47.7941653 215.819623,45.3734665 215.191049,43.0903442 C214.562475,40.8072219 212.479626,39.2295876 210.110619,39.2422207 L210.110619,39.2422207 Z M211.969676,48.2889674 C211.793831,48.3757423 211.612043,48.4499258 211.425683,48.5109582 C210.630768,48.7679276 209.777895,48.7861396 208.972726,48.563338 C208.860434,48.5309124 208.748142,48.4959925 208.64084,48.4560841 C206.750438,47.7587406 205.611665,45.8283758 205.916134,43.837362 C206.220604,41.8463482 207.884289,40.3441622 209.89678,40.2431296 C211.909271,40.142097 213.715165,41.4701008 214.217683,43.4206016 C214.720202,45.3711023 213.780662,47.4058042 211.969676,48.2889674 L211.969676,48.2889674 Z M213.077624,43.011075 L212.601007,42.5396564 C212.553973,42.4908803 212.489114,42.463325 212.421339,42.463325 C212.353565,42.463325 212.288706,42.4908803 212.241672,42.5396564 L210.684556,44.0861088 L210.123095,44.6423328 C210.123095,44.6423328 210.123095,44.6423328 210.123095,44.6423328 L210.075683,44.6872298 L210.075683,44.6872298 L209.783724,44.9790604 L209.783724,44.9790604 L209.26219,45.495376 L207.997033,44.2207998 C207.949999,44.1720238 207.88514,44.1444685 207.817365,44.1444685 C207.749591,44.1444685 207.684732,44.1720238 207.637698,44.2207998 L207.15609,44.697207 C207.107292,44.7442199 207.079725,44.8090504 207.079725,44.876795 C207.079725,44.9445395 207.107292,45.00937 207.15609,45.056383 L208.967735,46.8846889 L209.075036,46.9919428 C209.115067,47.031673 209.166562,47.0578453 209.222264,47.0667712 C209.300431,47.077536 209.379086,47.0507125 209.434371,46.9944371 L210.94657,45.4978702 L211.445646,44.9990146 L213.082615,43.3752396 C213.132369,43.3273932 213.160068,43.2610805 213.159146,43.1920755 C213.158177,43.1230705 213.128671,43.0575411 213.077624,43.011075 L213.077624,43.011075 Z M213.077624,43.011075 L212.601007,42.5396564 C212.553973,42.4908803 212.489114,42.463325 212.421339,42.463325 C212.353565,42.463325 212.288706,42.4908803 212.241672,42.5396564 L210.684556,44.0861088 L210.123095,44.6423328 C210.123095,44.6423328 210.123095,44.6423328 210.123095,44.6423328 L210.075683,44.6872298 L210.075683,44.6872298 L209.783724,44.9790604 L209.783724,44.9790604 L209.26219,45.495376 L207.997033,44.2207998 C207.949999,44.1720238 207.88514,44.1444685 207.817365,44.1444685 C207.749591,44.1444685 207.684732,44.1720238 207.637698,44.2207998 L207.15609,44.697207 C207.107292,44.7442199 207.079725,44.8090504 207.079725,44.876795 C207.079725,44.9445395 207.107292,45.00937 207.15609,45.056383 L208.967735,46.8846889 L209.075036,46.9919428 C209.115067,47.031673 209.166562,47.0578453 209.222264,47.0667712 C209.300431,47.077536 209.379086,47.0507125 209.434371,46.9944371 L210.94657,45.4978702 L211.445646,44.9990146 L213.082615,43.3752396 C213.132369,43.3273932 213.160068,43.2610805 213.159146,43.1920755 C213.158177,43.1230705 213.128671,43.0575411 213.077624,43.011075 L213.077624,43.011075 Z M213.077624,43.011075 L212.601007,42.5396564 C212.553973,42.4908803 212.489114,42.463325 212.421339,42.463325 C212.353565,42.463325 212.288706,42.4908803 212.241672,42.5396564 L210.684556,44.0861088 L210.123095,44.6423328 C210.123095,44.6423328 210.123095,44.6423328 210.123095,44.6423328 L210.075683,44.6872298 L210.075683,44.6872298 L209.783724,44.9790604 L209.783724,44.9790604 L209.26219,45.495376 L207.997033,44.2207998 C207.949999,44.1720238 207.88514,44.1444685 207.817365,44.1444685 C207.749591,44.1444685 207.684732,44.1720238 207.637698,44.2207998 L207.15609,44.697207 C207.107292,44.7442199 207.079725,44.8090504 207.079725,44.876795 C207.079725,44.9445395 207.107292,45.00937 207.15609,45.056383 L208.967735,46.8846889 L209.075036,46.9919428 C209.115067,47.031673 209.166562,47.0578453 209.222264,47.0667712 C209.300431,47.077536 209.379086,47.0507125 209.434371,46.9944371 L210.94657,45.4978702 L211.445646,44.9990146 L213.082615,43.3752396 C213.132369,43.3273932 213.160068,43.2610805 213.159146,43.1920755 C213.158177,43.1230705 213.128671,43.0575411 213.077624,43.011075 L213.077624,43.011075 Z M213.077624,43.011075 L212.601007,42.5396564 C212.553973,42.4908803 212.489114,42.463325 212.421339,42.463325 C212.353565,42.463325 212.288706,42.4908803 212.241672,42.5396564 L210.684556,44.0861088 L210.123095,44.6423328 C210.123095,44.6423328 210.123095,44.6423328 210.123095,44.6423328 L210.075683,44.6872298 L210.075683,44.6872298 L209.783724,44.9790604 L209.783724,44.9790604 L209.26219,45.495376 L207.997033,44.2207998 C207.949999,44.1720238 207.88514,44.1444685 207.817365,44.1444685 C207.749591,44.1444685 207.684732,44.1720238 207.637698,44.2207998 L207.15609,44.697207 C207.107292,44.7442199 207.079725,44.8090504 207.079725,44.876795 C207.079725,44.9445395 207.107292,45.00937 207.15609,45.056383 L208.967735,46.8846889 L209.075036,46.9919428 C209.115067,47.031673 209.166562,47.0578453 209.222264,47.0667712 C209.300431,47.077536 209.379086,47.0507125 209.434371,46.9944371 L210.94657,45.4978702 L211.445646,44.9990146 L213.082615,43.3752396 C213.132369,43.3273932 213.160068,43.2610805 213.159146,43.1920755 C213.158177,43.1230705 213.128671,43.0575411 213.077624,43.011075 L213.077624,43.011075 Z M213.077624,43.011075 L212.601007,42.5396564 C212.553973,42.4908803 212.489114,42.463325 212.421339,42.463325 C212.353565,42.463325 212.288706,42.4908803 212.241672,42.5396564 L210.684556,44.0861088 L210.123095,44.6423328 C210.123095,44.6423328 210.123095,44.6423328 210.123095,44.6423328 L210.075683,44.6872298 L210.075683,44.6872298 L209.783724,44.9790604 L209.783724,44.9790604 L209.26219,45.495376 L207.997033,44.2207998 C207.949999,44.1720238 207.88514,44.1444685 207.817365,44.1444685 C207.749591,44.1444685 207.684732,44.1720238 207.637698,44.2207998 L207.15609,44.697207 C207.107292,44.7442199 207.079725,44.8090504 207.079725,44.876795 C207.079725,44.9445395 207.107292,45.00937 207.15609,45.056383 L208.967735,46.8846889 L209.075036,46.9919428 C209.115067,47.031673 209.166562,47.0578453 209.222264,47.0667712 C209.300431,47.077536 209.379086,47.0507125 209.434371,46.9944371 L210.94657,45.4978702 L211.445646,44.9990146 L213.082615,43.3752396 C213.132369,43.3273932 213.160068,43.2610805 213.159146,43.1920755 C213.158177,43.1230705 213.128671,43.0575411 213.077624,43.011075 L213.077624,43.011075 Z" id="形狀" fill="#3ACC6C" fill-rule="nonzero" opacity="0.7"></path>
                <rect id="矩形" fill="#FDC30D" fill-rule="nonzero" opacity="0.2" x="41.8272544" y="20.3056613" width="109.572089" height="10.1666776" rx="5.08333878"></rect>
                <rect id="矩形" fill="#FDC30D" fill-rule="nonzero" opacity="0.2" x="41.8272544" y="39.4043488" width="153.892514" height="10.1666776" rx="5.08333878"></rect>
                <rect id="矩形" fill="#FDC30D" fill-rule="nonzero" opacity="0.1" x="41.8272544" y="58.5030363" width="118.909797" height="10.1666776" rx="5.08333878"></rect>
                <rect id="矩形" fill="#FDC30D" fill-rule="nonzero" opacity="0.1" x="41.8272544" y="77.6017238" width="153.892514" height="10.1666776" rx="5.08333878"></rect>
                <rect id="矩形" fill="#FDC30D" fill-rule="nonzero" opacity="0.2" x="41.8272544" y="96.7004112" width="103.65305" height="10.1666776" rx="5.08333878"></rect>
                <rect id="矩形" fill="#FDC30D" fill-rule="nonzero" opacity="0.1" x="41.8272544" y="115.801593" width="153.892514" height="10.1666776" rx="5.08333878"></rect>
                <rect id="矩形" fill="#FDC30D" fill-rule="nonzero" opacity="0.1" x="41.8272544" y="134.90028" width="93.1025878" height="10.1666776" rx="5.08333878"></rect>
                <path d="M185.760711,20.1435333 C182.866576,20.1435333 180.520415,22.4886586 180.520415,25.3815173 C180.520415,28.274376 182.866576,30.6195013 185.760711,30.6195013 C188.654846,30.6195013 191.001007,28.274376 191.001007,25.3815173 C191.001007,22.4886586 188.654846,20.1435333 185.760711,20.1435333 L185.760711,20.1435333 Z M185.760711,29.6217901 C183.417839,29.6217901 181.518567,27.7233553 181.518567,25.3815173 C181.518567,23.0396793 183.417839,21.1412445 185.760711,21.1412445 C188.103582,21.1412445 190.002862,23.0396793 190.002862,25.3815173 C190.004852,26.5062602 189.558394,27.5854383 188.76226,28.3802846 C187.966126,29.175131 186.885947,29.6201211 185.760711,29.6168015 L185.760711,29.6217901 Z" id="形狀" fill="#FDC30D" fill-rule="nonzero" opacity="0.1"></path>
                <path d="M187.367735,27.6538047 L188.02901,26.9953152 C188.084325,26.9401062 188.115407,26.8651779 188.115407,26.787043 C188.115407,26.7089081 188.084325,26.6339798 188.02901,26.5787708 L186.836219,25.3890001 L188.026515,24.1992295 C188.08183,24.1440205 188.112912,24.0690921 188.112912,23.9909573 C188.112912,23.9128224 188.08183,23.837894 188.026515,23.782685 L187.36524,23.1241956 C187.310433,23.0690559 187.235884,23.0380485 187.158123,23.0380485 C187.080362,23.0380485 187.005813,23.0690559 186.951007,23.1241956 L185.760711,24.3139663 L184.570415,23.1241956 C184.515182,23.0689053 184.44022,23.0378366 184.362051,23.0378366 C184.283882,23.0378366 184.20892,23.0689053 184.153687,23.1241956 L183.494907,23.782685 C183.438971,23.8375621 183.407458,23.9126147 183.407458,23.9909573 C183.407458,24.0692998 183.438971,24.1443524 183.494907,24.1992295 L184.685203,25.3890001 L183.497402,26.5762765 C183.441466,26.6311536 183.409954,26.7062062 183.409954,26.7845487 C183.409954,26.8628912 183.441466,26.9379439 183.497402,26.992821 L184.156182,27.6513104 C184.211416,27.7066007 184.286377,27.7376694 184.364546,27.7376694 C184.442716,27.7376694 184.517677,27.7066007 184.572911,27.6513104 L185.763206,26.4615397 L186.953502,27.6513104 C187.007976,27.7067814 187.082338,27.7382386 187.160099,27.7387121 C187.237861,27.7391751 187.312597,27.7086157 187.367735,27.6538047 Z" id="路徑" fill="#FDC30D" fill-rule="nonzero" opacity="0.1"></path>
                <path d="M229.756737,39.2421992 C226.862601,39.2421992 224.516441,41.5873461 224.516441,44.4802048 C224.516441,47.3730635 226.862601,49.7181888 229.756737,49.7181888 C232.650872,49.7181888 234.997054,47.3730635 234.997054,44.4802048 C235.001024,43.0897858 234.450205,41.7551646 233.466592,40.7719859 C232.48298,39.7888071 231.147769,39.238231 229.756737,39.2421992 L229.756737,39.2421992 Z M229.756737,48.7204839 C227.829042,48.7237921 226.141469,47.4275299 225.648408,45.5647777 C225.155346,43.7020255 225.980774,41.7411704 227.657881,40.7911522 C229.334988,39.841134 231.442067,40.1408337 232.787482,41.5207596 C234.132897,42.9006855 234.378346,45.0138565 233.385018,46.6651924 C232.618625,47.9372836 231.242334,48.715955 229.756737,48.7179833 L229.756737,48.7204839 Z" id="形狀" fill="#FDC30D" fill-rule="nonzero" opacity="0.1"></path>
                <path d="M231.35877,46.7524921 L232.020045,46.0940027 C232.07536,46.0387937 232.106443,45.9638654 232.106443,45.8857305 C232.106443,45.8075956 232.07536,45.7326673 232.020045,45.6774583 L230.827254,44.4876876 L232.020045,43.2979169 C232.07521,43.2431346 232.106231,43.1686189 232.106231,43.0908919 C232.106231,43.0131648 232.07521,42.9386492 232.020045,42.8838668 L231.35877,42.2228831 C231.303964,42.1677434 231.229415,42.136736 231.151654,42.136736 C231.073892,42.136736 230.999344,42.1677434 230.944537,42.2228831 L229.756737,43.4126537 L228.566441,42.2228831 C228.511635,42.1677434 228.437086,42.136736 228.359325,42.136736 C228.281563,42.136736 228.207015,42.1677434 228.152208,42.2228831 L227.490933,42.8838668 C227.435769,42.9386492 227.404748,43.0131648 227.404748,43.0908919 C227.404748,43.1686189 227.435769,43.2431346 227.490933,43.2979169 L228.681228,44.4876876 L227.490933,45.6774583 C227.435618,45.7326673 227.404536,45.8075956 227.404536,45.8857305 C227.404536,45.9638654 227.435618,46.0387937 227.490933,46.0940027 L228.152208,46.7524921 C228.206329,46.8089005 228.281134,46.8407921 228.359325,46.8407921 C228.437515,46.8407921 228.51232,46.8089005 228.566441,46.7524921 L229.756737,45.5627215 L230.949528,46.7524921 C231.063115,46.8640476 231.245183,46.8640476 231.35877,46.7524921 L231.35877,46.7524921 Z" id="路徑" fill="#FDC30D" fill-rule="nonzero" opacity="0.1"></path>
                <g id="群組" opacity="0.7" transform="translate(163.706552, 134.685773)" fill="#FF6584" fill-rule="nonzero">
                    <path d="M5.32014787,0.0523798403 C2.42601245,0.0523798403 0.0798521257,2.39750517 0.0798521257,5.29036387 C0.0798521257,8.18322256 2.42601245,10.5283479 5.32014787,10.5283479 C8.2142833,10.5283479 10.5604436,8.18322256 10.5604436,5.29036387 C10.5604436,2.39750517 8.2142833,0.0523798403 5.32014787,0.0523798403 Z M5.32014787,9.53063665 C2.97727634,9.53063665 1.0780037,7.63220186 1.0780037,5.29036387 C1.0780037,2.94852587 2.97727634,1.05009108 5.32014787,1.05009108 C7.66301941,1.05009108 9.56230389,2.94852587 9.56230389,5.29036387 C9.56495342,6.41553858 9.11878914,7.49535905 8.32258296,8.29074584 C7.52637679,9.08613262 6.44581741,9.53146462 5.32014787,9.52814237 L5.32014787,9.53063665 Z" id="形狀"></path>
                    <path d="M6.9271719,7.56265122 L7.58595194,6.9041618 C7.6412667,6.84895279 7.67234906,6.77402446 7.67234906,6.69588958 C7.67234906,6.6177547 7.6412667,6.54282637 7.58595194,6.48761736 L6.39565619,5.2978467 L7.58595194,4.10807604 C7.64111599,4.05329367 7.67213706,3.97877802 7.67213706,3.90105096 C7.67213706,3.8233239 7.64111599,3.74880825 7.58595194,3.69402588 L6.9271719,3.03304218 C6.87193852,2.97775182 6.79697712,2.94668317 6.71880776,2.94668317 C6.6406384,2.94668317 6.565677,2.97775182 6.51044362,3.03304218 L5.32014787,4.22281284 L4.12985213,3.03304218 C4.07504557,2.97790247 4.00049704,2.94689508 3.92273567,2.94689508 C3.84497431,2.94689508 3.77042578,2.97790247 3.71561922,3.03304218 L3.05434381,3.69402588 C2.99917976,3.74880825 2.96815869,3.8233239 2.96815869,3.90105096 C2.96815869,3.97877802 2.99917976,4.05329367 3.05434381,4.10807604 L4.24463956,5.2978467 L3.05434381,6.48761736 C2.99902905,6.54282637 2.96794669,6.6177547 2.96794669,6.69588958 C2.96794669,6.77402446 2.99902905,6.84895279 3.05434381,6.9041618 L3.71561922,7.56265122 C3.76974006,7.61905957 3.84454504,7.65095117 3.92273567,7.65095117 C4.00092631,7.65095117 4.07573129,7.61905957 4.12985213,7.56265122 L5.32014787,6.37288056 L6.51044362,7.56265122 C6.565677,7.61794158 6.6406384,7.64901023 6.71880776,7.64901023 C6.79697712,7.64901023 6.87193852,7.61794158 6.9271719,7.56265122 L6.9271719,7.56265122 Z" id="路徑"></path>
                </g>
                <rect id="矩形" fill="#FDC30D" fill-rule="nonzero" opacity="0.1" x="29.6148699" y="4.15770488" width="217.597043" height="6.53251436"></rect>
                <ellipse id="橢圓形" fill="#FEFEFE" fill-rule="nonzero" cx="164.480407" cy="71.7828297" rx="1.3849353" ry="1.38432435"></ellipse>
                <ellipse id="橢圓形" fill="#FEFEFE" fill-rule="nonzero" cx="168.722551" cy="71.7828297" rx="1.3849353" ry="1.38432435"></ellipse>
                <ellipse id="橢圓形" fill="#FEFEFE" fill-rule="nonzero" cx="172.964695" cy="71.7828297" rx="1.3849353" ry="1.38432435"></ellipse>
            </g>
        </g>
    </g>
</svg>